<?xml version="1.0" standalone="no"?>
<!DOCTYPE svg PUBLIC "-//W3C//DTD SVG 20010904//EN"
 "http://www.w3.org/TR/2001/REC-SVG-20010904/DTD/svg10.dtd">
<svg version="1.0" xmlns="http://www.w3.org/2000/svg"
 width="512.000000pt" height="512.000000pt" viewBox="0 0 512.000000 512.000000"
 preserveAspectRatio="xMidYMid meet">
<metadata>
Created by potrace 1.14, written by Peter Selinger 2001-2017
</metadata>
<g transform="translate(0.000000,512.000000) scale(0.100000,-0.100000)"
fill="#000000" stroke="none">
<path d="M2617 4648 c3 -17 2 -19 -5 -10 -7 11 -10 11 -15 -1 -4 -11 0 -15 14
-12 10 2 19 -1 19 -8 0 -8 3 -8 12 1 14 14 32 16 24 4 -3 -5 1 -9 9 -9 8 0 15
4 15 9 0 4 -5 8 -11 8 -8 0 -7 6 2 18 12 15 12 16 -2 5 -9 -7 -19 -10 -22 -6
-4 3 -7 1 -7 -5 0 -7 -4 -12 -10 -12 -5 0 -10 6 -10 14 0 8 -4 17 -9 20 -5 4
-7 -4 -4 -16z"/>
<path d="M2536 4646 c3 -8 0 -17 -6 -21 -6 -3 -9 -1 -8 6 2 7 -9 13 -24 14
-16 1 -28 -2 -28 -8 0 -5 -6 -7 -13 -4 -8 3 -14 -1 -14 -8 0 -11 5 -11 28 1
26 13 29 12 38 -5 8 -14 7 -22 -7 -32 -15 -12 -16 -12 -5 2 14 18 8 29 -16 29
-14 0 -14 -2 -1 -11 12 -8 10 -9 -9 -4 -18 6 -22 4 -16 -6 6 -11 5 -12 -6 -1
-16 14 -33 16 -24 2 3 -5 1 -10 -4 -10 -15 0 -14 13 2 29 8 9 8 12 0 7 -6 -3
-13 -1 -16 6 -2 7 -3 5 -2 -4 2 -13 -4 -18 -18 -18 -18 0 -19 2 -7 10 8 5 10
10 4 10 -14 0 -39 -21 -52 -45 -6 -11 -12 -14 -12 -7 0 7 -4 11 -8 8 -4 -2
-14 0 -22 5 -11 7 -7 8 13 5 15 -3 27 0 27 5 0 5 -3 9 -7 10 -5 0 -21 2 -38 4
-16 1 -24 1 -17 -2 10 -4 10 -8 0 -21 -8 -10 -9 -13 -1 -9 6 4 14 3 17 -2 7
-10 -41 -8 -51 3 -3 3 -13 0 -21 -7 -13 -10 -14 -8 -8 13 6 22 5 22 -4 7 -7
-10 -9 -21 -6 -25 10 -10 37 -11 30 -1 -9 15 3 10 17 -8 8 -10 9 -14 2 -10 -6
4 -15 3 -18 -3 -5 -8 -14 -6 -29 4 -19 12 -23 12 -23 0 0 -8 4 -14 9 -14 4 0
8 -5 8 -11 0 -8 -4 -8 -14 0 -10 8 -16 9 -21 1 -3 -5 -1 -10 5 -10 7 0 6 -5
-2 -14 -9 -10 -15 -11 -20 -2 -4 6 -12 12 -18 12 -5 1 -11 2 -12 4 -2 1 -14 3
-27 4 -22 3 -23 2 -6 -11 16 -11 16 -13 3 -13 -21 0 -30 -24 -15 -40 9 -10 9
-11 0 -6 -6 3 -16 -2 -22 -11 -6 -10 -11 -13 -11 -6 0 7 -10 10 -26 7 -17 -3
-23 -1 -19 6 4 6 14 9 22 6 9 -4 12 -2 7 7 -6 9 -4 9 8 -1 9 -7 18 -9 21 -5 3
5 -6 13 -19 20 -13 6 -22 7 -18 2 3 -5 -1 -9 -9 -9 -18 0 -33 -33 -18 -38 18
-6 12 -20 -6 -18 -10 2 -21 -1 -24 -6 -3 -5 -9 -3 -12 6 -4 9 -2 15 4 13 6 -1
15 8 20 21 6 15 5 21 -1 17 -6 -3 -10 -14 -10 -23 0 -15 -2 -15 -10 -2 -7 11
-10 11 -10 2 0 -7 -4 -11 -8 -8 -5 3 -9 -1 -9 -9 0 -8 3 -12 7 -10 13 8 6 -21
-8 -34 -12 -12 -13 -11 -8 5 9 29 -6 45 -24 26 -13 -14 -12 -15 3 -9 12 4 16
3 11 -4 -3 -6 -15 -9 -25 -6 -22 6 -35 -8 -18 -19 8 -5 9 -3 4 7 -7 11 -6 12
7 2 8 -7 19 -9 23 -5 5 4 5 2 1 -5 -3 -6 -18 -10 -32 -7 -18 3 -25 1 -21 -8 2
-7 13 -12 23 -10 15 2 16 1 5 -7 -10 -6 -22 -4 -37 5 -13 9 -25 11 -28 5 -3
-5 -3 -11 1 -14 5 -2 2 -2 -6 0 -9 2 -11 -3 -7 -14 5 -16 5 -16 -6 -2 -7 9
-17 17 -23 18 -5 1 -9 10 -7 21 2 10 -1 20 -5 23 -4 3 -8 -10 -8 -29 0 -19 -4
-34 -10 -34 -5 0 -11 5 -11 10 -1 6 -2 13 -3 17 -2 10 -41 -29 -41 -41 0 -6 7
-3 14 7 13 16 14 16 20 1 4 -9 4 -19 1 -22 -3 -3 -5 1 -5 9 0 12 -2 11 -10 -1
-9 -13 -14 -11 -32 10 -13 16 -19 18 -15 8 9 -24 15 -45 10 -35 -3 4 -9 5 -13
2 -5 -3 -15 4 -24 16 -15 22 -15 22 -13 1 0 -11 6 -18 12 -15 5 4 2 -3 -8 -14
-9 -11 -14 -24 -10 -28 5 -5 1 -4 -8 3 -9 6 -19 9 -23 5 -4 -4 -9 3 -13 15 -3
12 -9 22 -15 22 -5 0 -4 -8 2 -19 13 -26 13 -34 -2 -25 -8 5 -9 2 -5 -10 4
-10 3 -15 -4 -11 -5 4 -7 15 -4 25 4 11 -1 20 -11 24 -14 5 -15 4 -4 -9 11
-13 8 -15 -23 -11 -20 3 -39 1 -42 -5 -4 -5 -11 -7 -16 -3 -5 3 -7 9 -4 14 3
4 -3 14 -13 21 -16 13 -16 13 -2 -5 14 -18 13 -19 -5 -13 -16 5 -15 3 4 -10
26 -19 54 -26 45 -12 -3 5 0 9 5 9 6 0 11 -4 11 -8 0 -5 7 -9 15 -9 8 0 11 5
8 10 -3 6 -1 7 5 3 17 -10 15 -29 -2 -23 -7 3 -18 1 -24 -5 -6 -6 -12 -6 -17
2 -5 8 -13 6 -28 -7 -19 -16 -20 -16 -8 0 11 14 11 17 -1 17 -8 0 -19 -5 -25
-11 -9 -9 -16 -8 -27 4 -10 10 -12 18 -6 22 5 3 10 2 10 -3 0 -5 7 -9 16 -9
14 0 14 2 -2 14 -21 16 -34 17 -34 3 0 -5 -5 -10 -11 -10 -6 0 -8 8 -5 18 4
11 0 10 -12 -6 -14 -18 -20 -20 -30 -10 -11 11 -12 9 -7 -7 l7 -20 -18 20
c-14 17 -16 17 -11 3 8 -22 -2 -50 -14 -42 -5 3 -6 10 -3 16 5 7 2 8 -5 4 -7
-5 -10 -10 -7 -13 2 -3 -5 -16 -16 -29 -18 -20 -24 -22 -37 -11 -14 11 -14 10
-2 -5 7 -10 18 -15 25 -11 6 4 4 -2 -4 -13 -22 -29 -24 -30 -17 -11 6 15 3 17
-13 12 -12 -4 -20 -2 -20 5 0 6 4 8 10 5 6 -3 7 1 3 10 -4 11 -8 13 -13 5 -4
-6 -19 -9 -33 -6 -16 3 -27 0 -27 -6 0 -6 -10 1 -21 16 -12 15 -24 25 -27 22
-3 -3 -11 2 -19 12 -13 15 -13 15 -3 -6 6 -12 15 -20 21 -17 5 4 9 0 9 -9 0
-8 3 -16 8 -19 4 -2 2 -2 -5 -1 -15 4 -40 -36 -38 -61 1 -14 -5 -21 -16 -21
-10 0 -16 3 -14 6 2 3 -5 7 -16 7 -10 1 -19 -3 -19 -8 0 -6 4 -8 9 -5 13 8 21
-18 10 -35 -5 -8 -9 -9 -9 -4 0 6 -5 3 -10 -5 -6 -10 -10 -11 -10 -3 0 7 -3
12 -7 12 -21 -3 -33 2 -27 12 4 8 9 7 15 -2 7 -11 9 -11 9 1 0 13 2 13 11 0 9
-12 10 -12 5 3 -3 10 -6 22 -6 25 0 4 -5 0 -10 -8 -8 -13 -10 -13 -10 -1 0 11
-4 9 -14 -5 -11 -14 -12 -23 -3 -34 6 -8 7 -12 2 -7 -4 4 -20 -3 -34 -15 l-26
-23 22 26 c18 19 20 28 11 37 -9 9 -9 12 0 12 7 0 12 4 12 9 0 10 -34 8 -64
-5 -12 -4 -17 -4 -13 3 3 5 0 10 -8 10 -12 0 -12 -3 -2 -15 10 -13 8 -14 -11
-8 -12 4 -22 4 -23 -1 -4 -49 -16 -73 -33 -67 -8 3 -17 1 -21 -5 -3 -6 0 -9 8
-5 8 3 18 1 22 -5 9 -16 26 -13 23 3 -2 8 1 14 7 13 10 -2 15 -46 6 -62 -9
-16 -8 -85 1 -85 4 0 8 -5 8 -11 0 -6 -5 -7 -13 -2 -12 8 -18 9 -38 12 -8 1
-7 7 2 19 13 15 12 16 -3 3 -16 -12 -16 -16 -2 -42 8 -16 12 -30 9 -30 -3 -1
-9 -3 -15 -4 -5 -1 -13 -3 -16 -4 -4 0 -1 -7 5 -14 8 -10 7 -14 -4 -14 -8 0
-12 4 -9 9 3 4 0 8 -7 8 -6 0 -1 8 12 18 18 15 20 20 8 27 -8 5 -11 5 -7 0 8
-9 -32 -42 -45 -37 -5 1 -6 -2 -3 -7 4 -5 2 -12 -4 -16 -5 -3 -10 -12 -10 -18
0 -7 9 -1 20 13 l20 25 -4 -33 c-2 -18 -7 -36 -11 -40 -4 -4 -4 4 -1 18 l7 25
-19 -22 c-11 -12 -22 -19 -26 -16 -3 4 -7 1 -7 -5 -3 -26 -4 -31 -9 -36 -3 -3
-6 8 -5 23 0 16 2 28 5 26 3 -2 12 0 19 4 9 6 10 11 2 15 -6 4 -11 3 -11 -3 0
-5 -9 -8 -21 -6 -16 3 -18 1 -10 -8 6 -8 6 -18 1 -27 -5 -8 -7 -17 -5 -20 2
-3 -8 -7 -23 -8 l-27 -1 25 14 c15 9 19 14 10 15 -12 0 -13 2 -1 9 9 6 10 11
2 15 -10 6 -15 -6 -12 -26 2 -12 -13 -10 -26 3 -16 16 -11 -14 5 -33 6 -8 9
-18 5 -22 -4 -4 -16 3 -26 16 -18 22 -18 22 -8 1 7 -14 8 -24 1 -28 -5 -3 -10
-11 -10 -18 0 -8 3 -8 12 1 15 15 28 15 28 1 0 -5 -4 -8 -9 -4 -5 3 -12 1 -16
-5 -10 -17 -26 0 -20 21 4 10 2 19 -3 19 -16 0 -7 -48 12 -69 13 -14 14 -21 5
-27 -7 -4 -10 -3 -6 3 4 6 -1 17 -11 26 -15 13 -20 14 -36 1 -14 -10 -15 -14
-6 -14 9 0 6 -6 -8 -16 -12 -8 -27 -12 -34 -8 -7 5 -8 3 -4 -5 5 -7 13 -10 20
-8 6 3 20 -1 30 -8 16 -12 14 -13 -17 -11 -24 2 -34 -1 -31 -9 3 -6 -4 -20
-16 -30 -15 -13 -17 -21 -9 -31 9 -11 13 -11 25 1 8 7 14 17 14 21 0 5 -5 3
-12 -4 -20 -20 -32 -13 -13 8 17 19 19 19 31 2 10 -14 10 -18 -2 -25 -13 -7
-13 -11 -2 -25 11 -15 11 -15 -3 -4 -13 10 -18 10 -27 -1 -8 -9 -8 -17 -2 -25
6 -7 7 -10 4 -7 -4 3 -13 -3 -21 -13 -12 -15 -13 -14 -2 8 6 14 8 22 4 18 -5
-4 -15 -2 -24 5 -14 11 -14 10 -2 -6 13 -16 13 -20 1 -27 -8 -5 -18 -6 -22 -4
-4 3 -8 0 -8 -6 0 -7 7 -9 16 -6 9 4 23 1 30 -5 9 -7 14 -8 14 -1 0 5 8 13 17
16 15 6 15 4 -2 -14 -14 -15 -21 -17 -32 -9 -9 8 -13 8 -13 1 0 -6 5 -14 10
-17 6 -3 10 -12 9 -18 0 -9 -2 -8 -6 1 -2 6 -10 9 -15 6 -6 -4 -8 -2 -4 4 3 6
1 14 -5 18 -8 5 -9 3 -4 -6 5 -9 2 -10 -13 -6 -11 4 -23 2 -27 -3 -3 -6 0 -8
8 -6 7 3 26 -6 43 -21 l29 -26 -32 16 c-23 12 -34 13 -39 4 -4 -6 -3 -9 2 -6
5 3 15 0 22 -8 7 -8 9 -14 5 -15 -4 0 1 -4 12 -9 18 -8 18 -9 2 -9 -11 -1 -15
-6 -11 -13 5 -7 3 -8 -6 -3 -10 6 -12 4 -7 -8 4 -11 2 -14 -9 -10 -10 4 -12 9
-4 18 5 6 6 16 2 20 -4 5 -1 5 5 1 9 -5 11 -2 7 8 -3 9 -10 16 -16 16 -5 0 -7
-4 -3 -9 3 -5 1 -12 -5 -16 -6 -4 -8 -10 -5 -15 3 -5 1 -11 -5 -15 -6 -4 -8
-11 -5 -16 6 -8 -9 -13 -28 -10 -5 1 -6 -3 -2 -8 3 -6 13 -7 22 -4 12 5 14 3
8 -7 -5 -8 -3 -11 5 -8 8 2 16 10 18 18 3 8 0 10 -8 5 -9 -5 -11 -4 -6 4 10
16 25 4 23 -19 -1 -10 -5 -16 -9 -14 -4 3 -9 -5 -9 -18 -1 -17 -3 -18 -6 -5
-2 9 -9 17 -14 17 -6 0 -7 -9 -4 -20 8 -25 -3 -26 -22 -2 -13 15 -13 15 -3 -5
11 -23 3 -30 -16 -15 -5 4 -1 -1 9 -10 11 -10 16 -18 13 -18 -4 0 -2 -9 4 -20
6 -11 15 -18 20 -15 5 3 11 1 14 -4 4 -5 0 -8 -6 -7 -21 3 -45 20 -52 36 -3 8
-4 5 -2 -7 2 -13 0 -23 -6 -23 -5 0 -2 -8 8 -17 16 -16 15 -18 -10 -26 -25 -8
-36 -27 -16 -27 6 0 10 4 10 8 0 4 9 8 20 9 18 2 18 0 6 -13 -9 -8 -13 -21 -9
-29 4 -11 1 -13 -11 -9 -12 5 -15 2 -10 -10 3 -9 11 -13 16 -10 6 4 5 -4 -2
-16 -10 -18 -9 -24 1 -31 8 -5 9 -9 3 -9 -6 0 -17 6 -23 14 -9 11 -9 15 1 19
7 2 11 7 8 10 -3 3 -16 -3 -30 -14 -15 -11 -18 -17 -8 -13 11 4 18 1 18 -5 0
-7 10 -16 23 -22 18 -8 18 -9 2 -5 -11 2 -27 6 -35 8 -8 3 -12 3 -7 1 4 -3 4
-10 1 -15 -4 -7 -2 -8 4 -4 11 6 18 -20 13 -47 -1 -4 4 -18 10 -30 l12 -22
-20 20 c-12 12 -17 24 -12 30 5 7 1 11 -9 11 -12 0 -17 -9 -17 -28 -1 -22 2
-25 14 -15 12 10 13 8 6 -12 -5 -16 -4 -21 4 -17 6 4 11 2 11 -3 0 -13 -27
-15 -32 -2 -1 4 -12 -1 -23 -12 -20 -20 -20 -20 3 -8 15 8 22 8 22 1 0 -6 5
-8 11 -4 7 4 6 -3 -2 -17 -7 -13 -12 -30 -11 -37 2 -7 -4 -15 -12 -18 -9 -3
-13 -11 -9 -18 3 -6 2 -7 -2 -3 -15 13 -14 36 1 30 8 -3 14 1 14 8 0 7 -3 9
-7 6 -3 -4 -12 -2 -19 3 -9 8 -11 2 -8 -25 1 -20 -1 -33 -5 -30 -5 2 -14 -2
-21 -10 -10 -12 -8 -14 7 -10 11 2 26 -1 34 -5 11 -7 9 -9 -6 -9 -42 -1 -54
-5 -48 -14 4 -6 0 -8 -10 -4 -9 3 -19 3 -21 -2 -7 -10 26 -11 39 0 7 5 11 1
11 -11 0 -10 -4 -16 -8 -14 -4 3 -8 -2 -8 -11 0 -9 -5 -13 -10 -10 -6 4 -7 12
-4 18 4 7 -1 5 -11 -5 -18 -16 -13 -39 8 -37 9 0 9 2 0 6 -7 2 -13 9 -13 15 0
7 5 6 14 -1 7 -6 22 -9 32 -5 17 5 17 4 -1 -7 -11 -6 -22 -13 -24 -15 -2 -2 2
-12 10 -21 12 -16 12 -17 -1 -6 -12 9 -21 8 -40 -2 -14 -8 -19 -14 -12 -15 7
0 10 -5 7 -10 -4 -6 -11 -7 -17 -4 -7 4 -8 2 -4 -4 5 -9 13 -9 28 -1 17 9 18
13 7 20 -11 7 -10 9 4 9 9 0 17 -7 17 -16 0 -9 5 -12 12 -8 7 4 8 3 4 -4 -4
-6 -13 -9 -21 -6 -14 6 -15 -12 -2 -32 4 -7 1 -24 -7 -38 -11 -22 -13 -45 -7
-88 1 -5 6 -8 12 -8 6 0 7 5 2 13 -11 18 -13 38 -2 31 5 -3 9 -1 9 5 0 5 -6
12 -12 14 -10 4 -10 6 -1 6 18 1 26 -18 13 -34 -8 -10 -6 -17 11 -29 12 -8 26
-13 30 -10 4 2 10 0 14 -5 6 -10 -27 -7 -45 4 -6 3 -10 0 -10 -9 0 -8 -5 -16
-12 -18 -7 -3 -5 -7 6 -11 9 -4 15 -3 11 2 -10 18 13 21 26 4 8 -9 9 -14 3
-10 -6 4 -20 -3 -30 -15 -19 -21 -19 -21 3 -9 26 13 44 15 23 1 -11 -7 -11
-10 -2 -10 7 0 10 -5 6 -11 -5 -8 -9 -8 -14 1 -5 9 -9 9 -14 1 -4 -6 -3 -11 2
-11 5 0 9 -7 9 -15 0 -10 -6 -14 -16 -10 -11 3 -10 0 3 -10 11 -8 25 -15 30
-15 6 0 4 5 -4 11 -10 7 -11 9 -2 7 8 -2 13 -7 13 -11 -1 -4 -1 -14 -1 -24 0
-14 -3 -14 -22 3 l-23 19 18 -22 c11 -12 25 -19 32 -17 7 3 16 1 20 -5 3 -6 0
-9 -8 -5 -8 3 -18 0 -22 -6 -5 -8 -11 -6 -19 5 -10 14 -12 13 -11 -9 1 -14 5
-29 10 -33 4 -5 5 -2 1 5 -8 14 10 17 19 3 3 -6 -2 -14 -10 -18 -13 -8 -12
-11 10 -23 14 -7 25 -19 25 -26 0 -7 3 -14 8 -17 4 -2 3 -3 -3 -2 -5 1 -19 -1
-30 -6 -18 -7 -18 -8 -2 -8 10 -1 15 -6 12 -11 -4 -6 -11 -7 -17 -4 -7 4 -8 2
-4 -5 6 -9 11 -9 22 0 7 6 11 15 8 20 -3 5 2 6 10 3 14 -5 14 -8 1 -21 -18
-17 -18 -21 -1 -52 11 -20 14 -21 19 -7 5 11 3 15 -5 10 -7 -4 -8 -3 -4 4 4 7
2 12 -3 12 -21 0 -11 17 17 29 25 11 26 10 7 -4 -15 -12 -17 -18 -7 -24 7 -4
10 -15 7 -23 -5 -11 -1 -16 12 -15 10 1 17 -4 16 -10 -3 -12 3 -14 24 -12 4 0
11 -8 15 -18 7 -14 7 -13 4 5 -3 17 -1 22 9 19 8 -4 11 1 8 13 -5 19 -6 19
-22 -2 -14 -17 -18 -18 -18 -5 0 9 4 14 9 11 4 -3 8 0 8 5 0 6 -8 11 -17 12
-15 0 -15 2 2 8 11 5 25 6 30 2 10 -6 16 -7 36 -10 5 0 8 -5 5 -9 -3 -5 1 -9
9 -9 12 0 12 3 3 15 -16 19 -17 49 -2 49 7 0 12 -7 11 -16 -1 -21 32 -71 47
-70 7 0 6 2 -1 6 -7 2 -13 8 -13 12 0 9 57 8 66 -1 4 -4 -2 -6 -13 -4 -13 3
-19 -2 -21 -17 -1 -14 2 -17 6 -10 10 16 90 24 99 10 4 -6 12 -3 21 9 14 18
14 18 7 -1 -4 -11 -9 -25 -12 -32 -3 -7 3 -11 15 -10 12 0 18 5 16 9 -3 5 -10
5 -16 2 -6 -4 -3 5 8 19 10 15 23 27 28 27 5 0 1 -9 -9 -20 -18 -19 -11 -26
19 -21 4 1 14 -3 21 -9 9 -8 15 -8 20 0 3 5 1 10 -6 10 -7 0 -10 3 -6 6 10 10
28 -7 20 -19 -10 -16 -15 -53 -7 -44 9 9 44 -11 43 -26 0 -9 -2 -9 -6 1 -11
29 -22 8 -25 -53 -2 -44 1 -65 8 -65 7 0 14 -7 18 -15 4 -13 2 -13 -14 -5 -20
11 -39 -3 -20 -15 6 -4 8 -10 5 -14 -2 -5 1 -16 8 -25 12 -16 13 -16 14 4 1
11 -2 18 -6 16 -4 -3 -8 1 -8 9 0 10 4 12 12 5 7 -5 15 -7 18 -3 4 3 7 2 7 -3
0 -6 -5 -15 -12 -22 -9 -9 -9 -12 1 -12 7 0 11 -6 9 -12 -3 -7 3 -19 11 -28 9
-8 12 -12 7 -8 -19 15 -28 8 -15 -9 10 -11 10 -14 2 -9 -7 4 -13 3 -13 -3 0
-5 8 -14 17 -20 15 -8 16 -12 5 -23 -11 -11 -13 -10 -10 2 2 8 -3 15 -11 15
-8 0 -15 -6 -17 -13 -1 -7 0 -8 3 -2 2 5 9 10 14 10 6 0 8 -4 4 -9 -9 -16 15
-23 33 -10 14 11 15 11 5 0 -9 -11 -8 -17 5 -30 10 -9 13 -13 8 -9 -17 13 -29
9 -17 -5 6 -8 7 -18 3 -22 -4 -5 0 -6 9 -3 9 4 16 1 16 -7 0 -10 -5 -11 -19
-4 -10 6 -15 15 -12 21 4 7 3 8 -4 4 -6 -4 -8 -14 -5 -23 4 -9 2 -14 -3 -10
-6 3 -10 -5 -10 -18 0 -14 6 -27 13 -29 10 -4 11 -1 4 13 -10 18 -6 31 10 31
5 0 6 -7 2 -15 -3 -9 -2 -15 3 -14 26 4 34 -3 30 -26 -3 -13 0 -27 5 -30 5 -4
9 -13 9 -22 0 -9 -3 -13 -8 -9 -4 4 -7 13 -7 19 0 5 -7 12 -15 14 -12 4 -13 3
-1 -5 11 -8 10 -11 -5 -15 -16 -4 -17 -5 -1 -6 9 0 17 -6 17 -12 0 -6 7 -8 15
-5 42 17 47 16 22 -2 -23 -15 -25 -21 -13 -25 9 -4 16 -13 16 -22 0 -8 5 -15
10 -15 6 0 10 -8 11 -17 0 -11 2 -13 6 -5 3 7 -2 24 -11 37 -18 27 -13 33 9
11 8 -7 11 -16 8 -20 -4 -3 -1 -6 5 -6 8 0 9 -7 3 -23 -6 -14 -15 -21 -27 -19
-11 2 -16 0 -11 -4 4 -4 26 -9 50 -10 23 -1 45 -3 49 -3 15 -2 28 -40 16 -47
-7 -5 -8 -3 -3 6 5 9 4 11 -3 6 -8 -4 -10 -2 -6 7 3 8 -2 17 -10 20 -9 4 -16
2 -16 -3 0 -6 4 -10 9 -10 6 0 8 -10 6 -21 -3 -12 -2 -19 2 -15 11 11 32 -15
26 -32 -4 -15 -3 -15 6 -2 10 15 74 23 65 8 -3 -5 -10 -6 -15 -3 -5 4 -9 2 -9
-3 0 -19 14 -21 32 -5 11 9 18 11 18 5 0 -7 -6 -12 -12 -12 -9 0 -8 -3 2 -9 8
-6 17 -8 20 -6 3 2 6 -5 6 -15 0 -10 -4 -16 -8 -14 -4 3 -8 0 -8 -6 0 -7 7 -9
16 -6 9 3 17 6 20 6 2 0 1 8 -2 18 -5 14 -4 15 5 2 6 -8 16 -15 22 -15 7 0 14
-7 16 -15 3 -9 1 -11 -4 -5 -13 15 -30 16 -43 1 -8 -11 -8 -16 1 -22 8 -4 9
-3 5 4 -9 15 9 15 35 2 15 -9 19 -7 20 7 0 14 2 13 10 -5 5 -13 13 -20 19 -17
6 4 7 12 3 18 -4 7 0 6 10 -2 20 -16 22 -22 6 -18 -6 1 -14 -4 -16 -11 -3 -8
1 -10 13 -5 11 4 15 2 11 -4 -4 -5 5 -15 18 -21 17 -8 23 -17 19 -29 -5 -17
-5 -17 6 0 9 14 15 16 26 6 7 -6 11 -16 7 -23 -4 -6 1 -5 9 2 9 8 14 20 11 28
-3 8 -1 14 5 14 11 0 9 -39 -3 -61 -4 -8 1 -5 12 6 11 11 18 29 16 40 -2 13
-1 15 3 5 4 -8 11 -21 17 -28 8 -9 7 -12 -3 -10 -7 2 -15 -4 -17 -12 -4 -13
-3 -13 6 0 6 8 11 11 11 6 0 -5 8 -2 19 8 10 9 25 14 35 10 20 -8 21 -20 2
-27 -10 -4 -13 -1 -9 9 3 7 0 14 -7 14 -6 0 -8 -5 -4 -12 5 -7 3 -8 -7 -3 -11
7 -11 5 1 -10 13 -17 13 -18 -1 -13 -10 4 -16 1 -16 -8 0 -10 12 -7 45 11 25
14 47 23 50 20 3 -3 -1 -5 -9 -5 -12 0 -12 -2 1 -10 9 -5 19 -5 26 1 16 13 25
-3 13 -21 -7 -13 -9 -13 -9 0 0 13 -1 13 -10 0 -7 -12 -10 -12 -10 -1 0 8 -6
11 -16 7 -10 -4 -13 -2 -8 6 4 6 3 8 -4 5 -11 -8 -10 -32 2 -44 4 -4 7 -3 6 2
-6 26 2 28 20 5 16 -20 19 -21 13 -5 -6 18 -5 18 10 6 15 -12 21 -9 18 11 0 4
7 4 16 1 10 -4 14 -2 10 4 -3 5 1 10 9 10 11 0 9 -6 -7 -23 -15 -16 -17 -24
-8 -29 8 -5 10 -4 5 3 -4 7 -2 12 3 12 6 0 11 -6 11 -14 0 -8 7 -16 15 -20 13
-5 13 -3 0 18 -8 12 -12 25 -9 29 8 8 34 -3 34 -15 0 -5 -5 -6 -11 -3 -6 4 -5
-2 2 -13 7 -12 17 -18 23 -15 6 4 7 -1 2 -13 -6 -16 -5 -17 6 -6 11 11 9 16
-7 29 -19 15 -19 15 4 8 15 -5 21 -3 17 3 -3 5 1 13 9 16 13 4 13 2 5 -14 -14
-27 -12 -34 5 -20 8 7 15 9 15 4 0 -4 5 -3 12 4 7 7 17 12 22 12 6 0 3 -5 -6
-11 -20 -11 -21 -56 -1 -56 8 0 9 6 3 18 -13 23 9 31 39 14 20 -10 21 -13 7
-18 -11 -5 -15 -3 -10 5 4 7 3 8 -4 4 -7 -4 -12 -2 -12 5 0 7 -3 9 -6 6 -4 -4
-2 -12 3 -19 6 -7 9 -21 8 -31 -2 -9 1 -15 6 -11 5 3 7 10 4 15 -4 5 -2 9 4 9
5 0 11 -3 14 -7 2 -5 2 -2 1 4 -2 9 7 11 29 9 18 -3 36 -5 40 -5 5 -1 5 -11 2
-23 -4 -16 -3 -19 3 -9 8 11 10 11 14 0 3 -8 9 -9 18 -4 8 5 21 10 30 11 8 2
27 5 42 7 16 2 26 0 25 -6 -1 -6 8 -12 21 -13 39 -3 42 -4 42 -13 0 -10 -19
-9 -35 1 -6 4 -11 -2 -11 -12 0 -10 4 -16 9 -13 4 2 15 -1 24 -9 10 -8 14 -8
10 -1 -4 6 -3 14 3 18 6 3 15 -4 20 -17 10 -22 10 -22 6 -1 -2 12 -1 24 3 26
3 2 -1 2 -9 0 -8 -2 -11 -1 -7 3 4 4 2 13 -4 20 -8 10 -6 11 15 1 19 -9 24
-17 19 -32 -5 -17 -4 -18 9 -7 9 7 24 9 33 5 12 -4 16 -3 12 4 -5 7 0 9 13 6
25 -7 34 -19 20 -28 -5 -3 -10 -1 -10 4 0 21 -16 11 -17 -11 -2 -18 0 -20 7
-8 5 8 10 11 10 5 0 -5 5 -4 12 3 17 17 28 15 28 -5 0 -15 1 -15 13 1 12 16
14 16 26 2 14 -16 36 -12 25 5 -3 5 -10 6 -16 3 -7 -4 -8 -2 -4 4 5 9 13 9 27
2 11 -6 17 -15 14 -21 -4 -5 -1 -9 5 -9 6 0 10 8 8 17 -2 10 3 18 10 19 6 1
15 3 20 4 4 1 12 1 17 0 38 -8 45 -8 45 2 0 7 6 4 13 -7 10 -13 16 -15 21 -6
4 6 12 9 17 6 5 -4 9 0 9 7 0 10 2 10 9 0 4 -8 12 -14 17 -15 5 -1 8 -10 7
-20 -2 -10 2 -15 7 -12 6 3 10 15 10 25 0 25 19 36 33 20 9 -10 8 -12 -4 -7
-13 4 -16 1 -11 -16 3 -12 7 -16 10 -9 2 7 9 9 14 6 7 -5 8 -2 3 6 -5 8 -3 11
6 8 8 -3 14 -10 14 -16 0 -5 3 -13 7 -17 18 -18 -1 28 -20 48 -16 17 -18 24
-8 24 8 0 14 -5 13 -10 -1 -5 4 -12 11 -14 8 -3 10 2 6 14 -5 14 -4 15 4 3 6
-8 9 -17 6 -21 -2 -4 3 -9 11 -12 12 -5 12 -1 4 21 -8 21 -8 24 2 15 13 -13
42 -6 33 8 -3 5 2 6 10 3 16 -6 23 -25 9 -23 -20 3 -33 -2 -33 -12 0 -8 6 -7
17 2 15 12 16 12 10 -6 -6 -16 -3 -15 12 5 13 17 16 28 10 37 -14 16 14 11 35
-6 19 -16 22 -1 4 18 -11 10 -10 11 5 6 15 -7 21 -18 18 -37 0 -4 7 -4 16 -1
9 4 12 8 6 10 -6 2 -9 16 -7 29 3 18 1 23 -7 18 -8 -4 -9 -3 -5 4 10 16 14 15
27 -9 9 -17 8 -20 -3 -13 -10 6 -10 5 1 -9 13 -16 16 -16 47 8 32 24 48 23 23
-2 -8 -8 -8 -13 0 -18 6 -3 11 -3 10 2 -4 15 13 42 24 39 7 -1 9 -1 4 1 -12 8
3 22 17 17 8 -3 17 -1 20 4 3 5 -5 8 -19 7 -13 -2 -29 3 -36 11 -8 10 -8 14 0
14 6 0 11 -5 11 -11 0 -5 5 -7 10 -4 6 4 7 11 4 17 -4 7 -2 8 5 4 6 -4 8 -12
5 -18 -5 -7 -2 -8 5 -4 7 5 10 15 6 24 -3 9 -3 13 1 9 4 -4 13 2 21 12 8 12
20 17 32 14 27 -7 36 15 14 35 -10 9 -14 14 -9 10 17 -13 26 -9 19 10 -3 9 -3
14 1 10 4 -3 9 -14 11 -25 2 -10 4 -20 5 -23 1 -3 5 5 11 18 5 13 13 21 19 17
6 -3 7 1 4 10 -5 13 -9 13 -23 3 -14 -12 -14 -11 -3 4 13 16 42 15 42 -2 0 -5
13 4 30 18 17 15 30 31 30 37 0 5 -7 1 -15 -9 -8 -11 -17 -18 -19 -15 -2 2 7
17 20 32 20 24 27 27 39 17 8 -7 12 -17 8 -23 -3 -6 -1 -7 6 -3 6 4 8 12 5 18
-5 7 -1 9 9 5 11 -4 14 -2 10 9 -4 11 -9 12 -19 3 -10 -8 -14 -8 -14 0 0 6 5
11 11 11 5 0 7 5 4 10 -4 6 -12 7 -18 4 -7 -4 -8 -3 -4 1 4 5 15 10 23 11 9 1
14 0 11 -3 -3 -2 3 -13 14 -24 20 -20 34 -26 24 -10 -7 13 32 34 47 25 7 -4 8
-3 4 5 -4 6 -16 9 -27 6 -14 -5 -17 -2 -13 9 3 8 13 13 23 11 10 -2 18 3 18
11 0 10 -4 11 -14 3 -7 -6 -13 -10 -14 -8 -8 38 -7 40 7 28 11 -9 14 -8 14 2
1 8 7 3 14 -10 11 -19 14 -21 19 -7 4 9 -2 21 -16 31 -30 21 -12 19 20 -2 19
-13 25 -14 18 -4 -6 11 -4 13 7 9 8 -4 21 -2 29 4 11 8 10 9 -3 4 -10 -3 -18
0 -18 6 0 7 -4 7 -14 -1 -11 -9 -16 -9 -22 0 -5 8 -3 9 6 4 10 -6 12 -4 7 8
-3 9 -1 19 5 23 7 4 8 3 4 -4 -4 -7 -3 -12 3 -12 5 0 11 3 14 8 2 4 2 1 1 -5
-2 -7 1 -13 5 -13 15 0 19 23 9 45 -9 20 -9 20 6 1 9 -11 17 -17 17 -13 1 4 2
11 3 16 0 5 4 12 8 16 11 11 3 -22 -9 -37 -8 -9 -9 -19 -3 -28 7 -11 10 -11
11 -2 1 6 2 17 3 23 0 5 12 21 25 35 15 16 18 22 7 18 -9 -3 -16 -1 -16 6 0 6
5 8 10 5 6 -3 13 1 16 9 3 9 13 16 21 16 8 0 11 5 8 10 -3 6 -1 10 5 10 6 0 8
5 4 12 -4 7 -3 8 5 4 6 -4 8 -12 5 -18 -9 -15 -14 -61 -6 -53 7 7 8 12 11 40
1 19 21 20 21 1 0 -8 4 -18 10 -21 7 -4 7 2 0 19 -10 27 1 42 23 30 6 -4 9 -4
5 1 -4 4 -3 14 3 21 8 10 5 12 -14 9 -16 -3 -29 1 -38 13 -9 11 -9 14 -1 6 32
-28 86 16 58 47 -8 8 -8 10 0 6 13 -7 47 26 37 36 -3 4 -2 7 4 7 6 0 14 -7 17
-16 4 -10 2 -13 -7 -8 -9 5 -8 3 1 -7 11 -12 14 -12 21 0 5 8 7 20 4 27 -2 6
1 15 8 20 7 4 10 3 6 -3 -3 -5 0 -10 8 -10 11 0 12 4 3 14 -6 7 -7 17 -3 21 4
4 10 1 12 -5 5 -15 23 -17 23 -4 0 5 -9 13 -21 16 l-21 7 22 15 c12 8 19 21
17 27 -3 7 0 13 7 13 7 0 13 -6 13 -14 0 -7 -4 -13 -9 -13 -5 0 -6 -5 -2 -12
5 -7 3 -8 -7 -3 -12 8 -12 6 0 -8 14 -18 26 -23 16 -8 -7 12 24 43 36 36 5 -4
9 -1 9 5 0 7 -8 9 -19 5 -16 -5 -18 -2 -14 15 6 22 29 27 36 8 2 -7 4 2 5 20
0 18 -4 30 -9 26 -5 -3 -7 -10 -4 -15 4 -5 2 -9 -3 -9 -6 0 -13 7 -16 16 -3 8
-2 12 4 9 6 -3 13 1 16 9 3 9 10 14 14 11 5 -3 11 -1 15 5 4 6 10 8 15 5 5 -3
12 0 16 6 4 8 3 9 -4 5 -7 -4 -12 -2 -12 5 0 10 -3 10 -12 1 -15 -15 -28 -16
-28 -2 0 6 5 9 12 8 7 -2 12 2 13 9 0 6 4 15 9 20 5 4 6 3 2 -4 -3 -6 -2 -14
3 -17 5 -3 12 1 15 9 3 9 -1 18 -9 21 -8 4 -15 11 -15 16 0 6 8 4 17 -3 15
-12 16 -12 10 3 -4 12 -2 15 9 11 15 -5 20 -23 6 -23 -10 0 -13 -38 -4 -44 4
-3 9 4 10 15 1 10 3 28 4 39 2 13 7 19 17 15 10 -4 11 -2 4 7 -6 7 -9 24 -8
38 2 14 4 28 4 33 1 4 6 7 12 7 8 0 7 -6 -2 -17 -11 -15 -10 -15 8 1 13 10 20
22 18 27 -3 4 2 15 11 23 8 9 12 16 7 16 -17 0 -30 -16 -27 -33 1 -9 -2 -15
-7 -11 -5 3 -7 9 -4 14 3 5 1 11 -5 15 -6 4 -8 11 -4 16 3 5 9 7 14 4 5 -3 11
-1 15 4 3 6 13 8 23 5 13 -5 14 -4 3 4 -7 5 -11 14 -7 20 3 6 2 13 -4 17 -6 4
-7 12 -3 18 4 7 8 17 8 22 1 6 6 9 13 7 7 -1 12 2 12 8 0 5 -10 8 -22 6 -18
-2 -23 -9 -22 -34 0 -20 -3 -29 -10 -25 -6 4 -5 -1 3 -11 11 -13 11 -20 3 -28
-9 -9 -12 -9 -12 1 0 7 -4 10 -9 7 -11 -7 -9 14 4 34 14 21 13 33 -5 48 -13
10 -13 11 3 6 11 -4 16 -2 14 7 -2 8 -2 11 0 7 7 -11 43 11 42 25 0 9 -2 9 -6
0 -2 -7 -9 -13 -15 -13 -6 0 -7 7 -4 16 6 15 4 15 -11 3 -16 -13 -17 -12 -4 4
8 10 20 16 27 13 8 -3 11 0 7 10 -3 8 0 21 6 28 8 10 9 16 1 21 -9 6 -14 0
-12 -16 1 -4 -8 -15 -18 -24 -11 -10 -20 -13 -20 -8 0 6 7 14 16 17 15 6 15 8
1 29 -12 19 -13 24 -2 24 8 0 12 -4 10 -7 -3 -4 7 -7 20 -7 14 0 28 4 32 10 4
6 0 8 -8 5 -8 -3 -23 0 -34 8 -11 8 -13 14 -6 14 7 0 11 6 8 13 -2 6 -11 10
-18 9 -8 -2 -10 0 -6 5 5 4 14 8 20 8 7 1 11 6 9 13 -1 7 2 12 6 12 13 0 11
33 -2 50 -9 13 -9 13 5 3 9 -7 19 -9 24 -5 4 4 2 -4 -5 -18 -7 -14 -9 -22 -5
-18 5 4 14 3 22 -3 9 -9 13 -8 13 0 0 6 -4 11 -10 11 -5 0 -10 5 -10 10 0 7 7
7 23 0 l22 -11 -23 18 c-25 21 -18 40 7 21 12 -10 12 -8 -1 8 -22 25 -24 41
-3 24 19 -16 20 -3 1 16 -8 7 -16 10 -19 6 -2 -4 -2 -2 -1 5 2 7 -1 15 -6 18
-7 4 -7 13 0 24 5 10 7 21 5 25 -3 3 -2 4 2 1 3 -3 12 0 20 6 21 18 15 1 -8
-22 -22 -22 -21 -29 8 -34 10 -1 17 -8 15 -15 -1 -6 2 -9 8 -5 8 5 8 11 1 19
-6 7 -7 17 -3 21 4 5 2 5 -5 1 -6 -3 -14 -2 -17 3 -4 5 3 13 14 16 16 5 18 10
10 20 -6 7 -10 17 -9 21 4 22 -2 45 -10 40 -5 -4 -8 2 -7 11 2 9 8 19 14 21 7
2 9 9 6 14 -5 7 -2 8 6 3 10 -6 12 -3 7 11 -5 15 -3 14 9 -3 9 -13 21 -23 27
-23 7 0 7 4 -1 12 -7 7 -12 16 -12 21 0 4 11 -3 23 -17 13 -14 28 -22 32 -18
5 4 5 2 1 -5 -8 -14 20 -73 34 -73 5 0 14 8 20 18 9 14 11 14 7 1 -3 -9 -1
-21 5 -27 6 -6 6 -12 -3 -17 -8 -6 -10 -4 -4 5 6 9 4 11 -4 5 -9 -5 -9 -11 -3
-17 6 -6 8 -18 5 -27 -4 -12 -3 -13 5 -3 7 11 10 11 15 -2 3 -8 1 -17 -6 -20
-8 -3 -8 -5 2 -5 11 -1 11 -4 0 -18 -13 -16 -12 -17 3 -4 10 7 16 17 13 21 -3
4 2 11 11 14 8 3 12 11 8 17 -4 8 -3 9 5 5 6 -4 8 -12 5 -18 -5 -7 -2 -9 8 -6
8 4 15 0 15 -7 0 -10 -5 -11 -19 -4 -14 7 -18 6 -18 -5 0 -8 5 -18 10 -21 8
-5 7 -12 -2 -23 -12 -15 -11 -16 4 -3 10 7 24 11 32 8 7 -3 18 -1 23 4 5 5 9
1 9 -10 0 -15 -4 -17 -16 -11 -9 5 -22 5 -31 -1 -10 -6 -10 -9 -1 -9 6 0 12
-8 13 -17 0 -15 2 -15 9 2 5 11 9 14 9 7 1 -7 7 -10 14 -7 6 4 1 -3 -12 -14
-13 -12 -19 -21 -14 -21 5 0 19 9 31 20 12 12 22 17 22 12 0 -5 -6 -15 -14
-22 -20 -15 -11 -35 22 -49 l27 -12 -29 24 c-24 19 -26 25 -13 30 11 4 14 2
11 -8 -3 -7 3 -16 14 -19 29 -10 38 -66 10 -66 -7 0 -6 5 1 14 9 11 8 15 -5
20 -21 8 -21 8 -28 -10 -6 -15 -4 -15 11 -3 15 12 16 12 11 -2 -4 -11 4 -24
23 -38 28 -21 42 -50 17 -35 -10 6 -10 5 -1 -8 7 -8 9 -18 5 -22 -4 -4 0 -6 8
-4 10 2 15 -4 14 -19 -1 -13 3 -20 7 -17 5 3 9 1 9 -4 0 -15 28 -23 36 -10 5
7 2 8 -6 3 -9 -6 -11 -4 -5 5 5 8 4 11 -3 6 -6 -3 -13 -2 -16 3 -3 5 3 11 14
14 11 3 18 1 15 -3 -3 -5 -1 -11 4 -14 5 -3 7 -15 4 -26 -3 -11 -9 -18 -12
-15 -4 2 -8 -2 -8 -10 0 -22 12 -18 25 7 6 13 11 17 11 9 1 -11 4 -11 19 0 15
13 16 12 3 -3 -7 -10 -18 -15 -25 -11 -6 3 -8 3 -4 -2 4 -4 2 -15 -5 -23 -6
-9 -7 -13 -1 -9 14 8 56 -21 49 -34 -4 -5 -3 -9 2 -10 11 -1 44 -7 67 -12 10
-2 23 -12 28 -23 9 -18 9 -18 -6 0 -9 11 -16 16 -17 10 0 -5 -2 -17 -4 -27 -2
-11 1 -15 8 -10 18 11 36 12 43 2 3 -5 10 -7 15 -3 5 3 17 0 26 -8 13 -10 17
-10 20 0 3 6 10 9 16 5 7 -3 8 -2 4 2 -11 13 -38 15 -31 3 4 -7 2 -8 -4 -4 -6
4 -8 14 -5 22 4 11 8 12 13 4 5 -9 9 -9 14 -1 4 6 4 16 0 23 -5 7 -3 8 5 4 7
-5 10 -14 7 -22 -3 -8 1 -14 9 -14 8 0 14 3 12 8 -2 6 8 14 16 11 22 -7 44 -6
54 3 9 7 13 7 13 -1 0 -6 5 -11 12 -11 6 0 8 3 5 7 -4 3 -1 13 6 22 11 14 10
14 -5 2 -12 -9 -18 -10 -18 -2 0 6 -5 11 -11 11 -5 0 -8 -4 -4 -9 3 -5 1 -12
-4 -15 -5 -4 -8 2 -7 11 2 10 9 19 17 19 32 3 33 5 19 14 -9 6 -10 10 -3 10 6
0 19 -10 27 -22 9 -12 17 -17 17 -10 1 6 2 17 3 22 0 6 8 15 16 20 8 5 10 10
4 10 -5 0 -19 7 -30 16 -18 14 -18 15 5 4 17 -9 26 -9 34 -1 18 18 31 13 16
-6 -12 -16 -12 -17 1 -7 8 6 23 10 33 9 15 -3 16 -1 6 11 -6 7 -15 12 -19 9
-5 -3 -12 0 -16 7 -4 7 -4 10 1 6 4 -4 14 0 22 8 8 8 18 12 23 9 4 -3 13 2 20
10 7 8 17 15 22 15 6 0 0 -9 -13 -19 l-24 -20 23 2 c12 1 22 6 22 12 0 5 5 2
11 -8 6 -9 14 -15 19 -12 4 3 11 -2 14 -10 4 -13 2 -13 -14 -5 -24 13 -40 -8
-16 -22 9 -5 13 -14 10 -20 -4 -6 -2 -8 4 -4 6 3 13 2 17 -4 3 -5 1 -10 -5
-10 -6 0 -8 -5 -4 -11 4 -8 9 -7 15 2 5 9 0 22 -13 36 -28 30 -12 30 21 1 14
-13 20 -16 13 -6 -11 14 -9 19 9 32 13 8 19 19 15 23 -4 4 -11 1 -15 -6 -7
-11 -10 -11 -17 0 -16 27 -12 40 19 60 18 10 26 19 19 19 -7 0 -10 5 -7 10 4
6 10 8 14 6 4 -3 8 1 8 9 0 8 -5 11 -10 8 -5 -3 -7 0 -5 8 3 8 11 13 18 11 11
-2 11 0 1 12 -7 9 -8 17 -2 20 5 3 12 0 14 -6 3 -8 6 -6 6 5 1 9 -3 17 -8 17
-14 0 -31 -26 -23 -36 4 -4 0 -3 -10 4 -11 9 -18 9 -21 2 -3 -6 -4 -5 -3 2 2
7 9 12 15 11 10 -3 15 9 13 28 -1 8 31 5 45 -4 8 -5 11 -1 8 13 -2 11 1 22 6
26 6 4 6 11 -2 20 -6 8 -8 14 -4 14 4 0 1 8 -6 17 -10 11 -10 14 -1 9 6 -4 12
-2 12 3 0 6 -5 11 -12 11 -6 0 -9 2 -6 5 3 3 13 3 22 -1 13 -5 14 -9 5 -20 -9
-11 -9 -14 0 -14 7 0 9 -5 5 -12 -4 -7 2 -4 14 6 25 21 31 36 7 16 -9 -8 -15
-9 -15 -2 0 6 4 13 9 16 5 3 7 15 4 26 -4 15 -1 19 9 15 9 -4 15 0 15 9 0 8
-6 12 -15 8 -11 -4 -13 -1 -7 9 5 8 5 11 -1 6 -5 -5 -9 -13 -9 -18 0 -15 -19
-10 -21 6 -1 8 2 13 7 9 5 -3 9 -1 9 3 0 5 10 14 21 22 20 12 21 11 15 -6 -6
-14 -5 -15 5 -6 10 10 9 16 -2 29 -13 16 -12 17 6 11 19 -7 19 -6 1 7 -18 15
-14 42 5 30 6 -3 5 3 -3 15 -7 12 -16 21 -21 21 -4 0 -6 -4 -2 -9 3 -5 1 -12
-5 -16 -5 -3 -10 3 -10 14 0 12 4 21 8 21 5 0 8 10 7 23 -1 12 5 28 14 35 14
11 14 11 -2 6 -13 -5 -18 -2 -17 7 5 36 1 43 -18 26 -17 -15 -18 -15 -19 6 -2
17 0 19 7 7 8 -13 10 -12 10 3 0 10 4 16 8 13 4 -2 8 6 8 19 0 13 -5 23 -10
22 -6 -1 -11 4 -12 11 -1 6 -2 17 -3 22 0 6 -9 10 -18 10 -10 0 -14 -4 -8 -8
13 -9 17 -32 6 -32 -11 0 -19 30 -14 48 3 6 10 9 15 6 7 -5 8 -2 4 5 -6 9 -13
8 -27 -5 -11 -9 -22 -14 -26 -11 -3 4 -1 7 5 7 16 0 35 38 28 56 -3 9 -11 12
-17 8 -8 -4 -7 -9 2 -15 11 -7 10 -12 -5 -26 -16 -14 -17 -15 -7 -1 10 14 9
18 -6 27 -14 8 -15 11 -3 11 12 0 10 4 -4 15 -11 8 -15 15 -10 15 6 0 15 -5
22 -12 9 -9 12 -9 12 -1 0 7 -5 15 -10 18 -6 4 -8 11 -4 16 3 5 10 7 15 4 5
-4 9 -1 9 5 0 6 5 8 12 4 7 -5 8 -3 3 6 -4 7 -2 15 5 20 8 5 8 9 -4 13 -9 4
-15 3 -15 -1 3 -19 -3 -28 -21 -29 -11 -1 -22 2 -25 8 -4 5 2 6 11 2 12 -4 15
-3 10 5 -5 8 -2 10 9 6 10 -4 15 -2 13 7 -2 10 5 13 22 11 19 -2 22 0 10 8
-13 9 -7 14 12 11 4 0 4 7 1 16 -4 11 -8 13 -11 5 -2 -7 -9 -9 -14 -6 -6 4 -8
2 -5 -3 4 -6 -3 -13 -15 -16 -16 -4 -18 -3 -9 6 21 21 11 30 -11 11 -14 -12
-18 -13 -10 -3 6 9 9 18 7 21 -3 3 5 5 17 4 17 -1 22 4 20 18 -2 12 1 16 9 10
8 -5 10 -3 5 5 -6 9 -13 8 -27 -5 -19 -17 -20 -17 -13 2 7 16 6 17 -8 6 -13
-10 -18 -10 -24 -1 -4 8 -3 9 4 5 7 -4 12 -2 12 4 0 7 6 10 14 7 8 -3 16 0 19
7 6 15 -20 52 -30 43 -3 -4 1 -13 10 -20 15 -11 14 -12 -9 -14 -15 0 -22 2
-16 6 7 4 8 12 2 21 -6 8 -10 20 -10 25 0 6 4 4 9 -4 7 -11 13 -9 30 8 23 23
20 44 -5 34 -19 -7 -15 17 6 35 13 11 11 11 -8 2 -16 -8 -27 -8 -40 0 -16 11
-16 11 0 6 10 -3 20 0 24 6 4 6 3 8 -4 4 -5 -3 -12 0 -15 6 -3 10 -7 10 -19 0
-14 -11 -15 -8 -13 18 1 16 8 36 14 43 8 10 6 19 -10 36 -20 22 -20 23 -3 37
18 14 18 15 -3 5 -16 -8 -22 -7 -27 5 -5 12 -2 15 9 10 10 -3 13 -2 10 4 -4 6
-12 10 -18 9 -28 -3 -37 2 -37 22 0 14 -5 19 -15 16 -8 -4 -17 -1 -21 5 -4 7
-3 8 4 4 7 -4 12 -3 12 2 0 6 10 8 23 6 20 -4 20 -4 2 4 -11 5 -20 13 -21 18
-2 27 -18 45 -38 42 -11 -2 -21 3 -22 10 -1 6 -2 18 -3 25 -1 8 -4 8 -12 -3
-9 -13 -10 -13 -6 2 3 9 2 18 -3 20 -4 2 -1 10 8 18 14 13 15 12 9 -3 -5 -12
-3 -16 5 -11 7 5 8 3 3 -6 -5 -9 -4 -11 3 -6 8 4 10 2 6 -7 -6 -18 12 -32 21
-17 4 6 10 8 15 5 11 -7 7 22 -5 32 -4 4 -5 3 -2 -3 4 -7 -1 -18 -10 -25 -15
-12 -16 -12 -10 4 4 11 0 26 -12 39 -11 11 -18 25 -17 32 2 6 1 8 -1 4 -2 -4
-12 -4 -21 -1 -14 5 -13 3 2 -9 15 -12 16 -17 6 -23 -8 -5 -11 -4 -7 2 4 6 0
14 -9 17 -8 3 -13 10 -10 15 3 5 -1 14 -9 21 -8 7 -12 17 -8 23 4 7 0 8 -13 3
-14 -5 -16 -4 -7 5 13 13 37 3 28 -12 -4 -5 -1 -9 4 -9 6 0 11 6 11 13 0 15
-58 49 -65 37 -3 -4 1 -11 7 -13 9 -4 10 -6 1 -6 -16 -1 -28 20 -16 28 5 3 13
14 16 25 5 13 3 17 -7 13 -8 -3 -20 1 -26 8 -7 8 -17 12 -22 9 -5 -3 -4 3 3
14 7 12 16 19 19 17 4 -2 7 2 7 9 0 8 -7 12 -15 8 -9 -3 -13 -1 -9 5 4 6 -2
18 -13 28 -16 15 -18 21 -7 33 9 13 9 14 0 8 -8 -4 -23 3 -38 18 -13 14 -27
20 -30 15 -4 -5 -11 -9 -17 -9 -7 0 -6 6 2 15 7 8 9 15 5 15 -5 0 0 10 11 22
12 13 13 18 4 13 -8 -5 -21 -10 -28 -11 -15 -3 -34 30 -24 41 4 5 1 5 -5 1 -8
-4 -13 -1 -13 7 0 19 -24 29 -38 15 -6 -6 -12 -6 -17 3 -5 8 -4 10 3 5 7 -4
12 -2 12 5 0 6 -8 9 -20 6 -11 -3 -23 -1 -26 4 -3 5 -9 7 -14 4 -4 -3 -6 4 -3
15 3 11 9 20 14 20 5 0 6 -6 3 -14 -3 -8 0 -17 7 -22 9 -5 10 -2 6 10 -6 14
-3 16 16 11 l22 -6 -23 13 c-18 11 -20 16 -10 27 7 7 -9 0 -37 -14 -27 -15
-42 -20 -32 -12 18 15 24 32 7 22 -5 -3 -10 -2 -10 3 0 11 30 26 45 23 6 -2 6
1 2 5 -4 4 -15 9 -23 10 -9 1 -13 0 -10 -3 3 -4 -3 -13 -14 -20 -11 -8 -17
-19 -14 -25 4 -7 2 -8 -5 -4 -9 6 -9 11 -1 21 7 8 9 18 6 24 -3 5 0 12 6 15 7
3 4 4 -8 1 -13 -3 -27 1 -35 12 -13 15 -12 16 6 9 15 -5 17 -4 8 5 -18 19 -35
2 -22 -24 10 -21 10 -21 -5 -3 -11 13 -16 15 -16 6 0 -7 -3 -10 -6 -7 -4 4 0
17 9 30 16 24 15 24 -8 13 -13 -6 -21 -15 -18 -20 3 -5 -8 0 -26 10 -17 10
-28 20 -22 22 11 4 -17 62 -31 62 -5 0 -19 10 -29 23 l-20 22 17 -27 c11 -19
12 -28 5 -28 -7 0 -9 -5 -5 -12 6 -10 5 -10 -8 -1 -8 7 -18 9 -22 5 -4 -4 -6
0 -4 8 2 10 -3 14 -17 12 -17 -4 -17 -1 5 17 15 12 19 20 10 19 -8 -2 -15 4
-15 14 0 9 -4 20 -8 25 -5 4 -8 3 -7 -2 1 -6 2 -17 1 -25 -1 -13 -2 -13 -11 0
-6 10 -10 11 -10 3 0 -7 -5 -13 -11 -13 -5 0 -8 4 -4 10 3 5 -8 16 -25 25 -16
8 -30 12 -30 8 0 -5 -5 -1 -11 7 -9 13 -10 13 -6 0 2 -8 10 -14 16 -13 6 2 11
-2 11 -8 0 -5 5 -7 12 -3 7 4 8 3 4 -4 -5 -8 -1 -10 10 -5 11 4 15 2 11 -4 -4
-6 -1 -16 7 -22 11 -9 15 -9 19 1 3 7 4 3 4 -9 -1 -20 -3 -21 -17 -8 -9 8 -20
13 -23 10 -4 -3 -5 -2 -2 2 3 3 -7 14 -22 24 -25 17 -28 17 -40 1 -13 -15 -13
-15 -4 4 5 11 6 26 1 34 -4 7 -6 20 -3 29 3 10 2 12 -4 5 -4 -5 -29 -9 -55 -8
-30 1 -45 -2 -41 -9 4 -6 1 -7 -6 -3 -7 5 -10 11 -7 14 3 3 0 12 -7 20 -9 13
-9 14 1 8 17 -10 15 -1 -4 18 -12 12 -20 13 -35 5 -11 -5 -18 -13 -15 -17 2
-4 -6 -7 -19 -7 -13 0 -21 3 -18 8 2 4 11 7 19 7 8 0 14 5 14 11 0 5 -8 9 -17
8 -30 -3 -34 0 -24 20 13 24 -12 37 -29 15 -7 -8 -18 -14 -24 -13 -7 0 -6 2 2
6 17 7 15 40 -4 47 -9 4 -13 2 -8 -5 4 -7 1 -10 -7 -7 -8 3 -22 1 -32 -4 -9
-5 -17 -5 -16 -1 3 20 -2 24 -16 13 -12 -10 -16 -9 -21 6 -4 11 -9 23 -12 28
-3 5 1 6 9 1 12 -8 12 -6 0 8 -12 15 -31 15 -31 1 0 -3 4 -2 10 1 6 3 7 -1 4
-10 -8 -20 -16 -13 -19 17 -1 13 -3 27 -4 32 0 4 -13 1 -27 -9 -14 -9 -28 -14
-32 -11 -3 3 0 6 6 6 7 0 12 7 12 16 0 8 4 13 9 9 5 -3 12 -1 15 4 3 4 -2 8
-12 8 -33 0 -43 3 -38 11 3 5 -1 9 -8 9 -11 0 -12 -4 -3 -18 6 -10 15 -15 21
-12 5 3 6 1 2 -5 -10 -17 -26 -15 -26 4 0 9 -6 14 -12 12 -7 -3 -13 -10 -13
-16 0 -5 -3 -13 -7 -17 -11 -11 -3 18 14 53 9 17 12 32 7 32 -5 0 -9 -5 -9
-11 0 -5 -5 -7 -10 -4 -6 4 -7 11 -4 17 4 6 -1 6 -14 -1 -17 -9 -23 -7 -35 9
-8 12 -18 20 -23 19 -5 -1 -16 -1 -24 0 -13 1 -13 2 0 12 13 9 13 10 0 6 -9
-2 -14 -14 -13 -30 1 -15 -2 -27 -8 -27 -6 0 -8 4 -4 9 3 5 1 12 -5 16 -6 4
-8 11 -5 16 11 17 -14 9 -25 -8 -10 -16 -11 -16 -6 -1 3 10 -4 22 -18 32 -28
18 -43 9 -18 -11 15 -13 15 -13 -5 -4 -18 9 -21 18 -18 48 3 30 2 33 -5 16
-10 -24 -42 -25 -48 -2 -3 11 -1 11 8 -1 10 -13 11 -12 6 3 -3 10 -6 21 -6 24
0 3 -7 0 -15 -7 -10 -8 -15 -9 -15 -2 0 6 8 15 18 21 15 9 15 10 -5 8 -12 0
-19 -5 -17 -9 3 -4 1 -8 -5 -8 -6 0 -9 -6 -7 -12 1 -7 1 -10 -1 -6 -2 4 -12 5
-21 2 -15 -5 -15 -4 1 6 25 16 22 33 -4 20 -27 -15 -34 -7 -19 20 6 12 9 24 6
28 -3 3 -6 -1 -6 -9 0 -12 -2 -11 -11 1 -9 13 -10 13 -6 -2 3 -9 0 -19 -7 -21
-9 -4 -12 2 -9 17 3 16 -2 25 -22 34 -14 7 -24 8 -21 3 3 -5 -1 -12 -10 -15
-8 -3 -12 -2 -9 4 3 6 -1 10 -10 10 -9 0 -13 5 -10 10 3 6 1 11 -4 11 -26 3
-30 4 -37 12 -4 4 -1 7 6 7 7 0 10 3 7 6 -4 4 -14 1 -22 -6 -13 -11 -18 -10
-30 6 -15 18 -15 18 -8 -1 l6 -20 -24 20 c-20 17 -21 17 -9 2 12 -16 12 -18
-1 -16 -26 5 -58 -11 -52 -26 3 -8 9 -13 13 -10 5 3 11 1 14 -4 4 -5 -1 -8
-10 -7 -9 1 -21 10 -26 20 -7 13 -13 14 -23 6 -10 -8 -15 -8 -20 1 -6 8 -10 7
-16 -2 -6 -10 -9 -11 -9 -1 0 6 -5 12 -11 12 -5 0 -8 -4 -4 -9 3 -5 0 -13 -6
-17 -8 -4 -9 -3 -5 4 3 6 -2 16 -13 22 -17 9 -19 7 -16 -11 3 -12 1 -18 -3
-15 -4 4 -7 12 -7 18 0 18 -34 18 -52 0 -16 -16 -16 -16 -10 1 4 10 7 21 7 23
0 3 5 2 12 -2 6 -4 8 -3 5 3 -3 5 0 10 8 10 8 0 11 -5 8 -10 -3 -6 -1 -7 5 -3
16 10 15 29 0 23 -7 -2 -21 0 -30 5 -13 6 -16 5 -12 -6z m241 -40 c0 -8 -6
-12 -15 -9 -11 5 -11 7 0 14 7 5 13 9 14 9 0 0 1 -6 1 -14z m93 4 c3 -1 8 -2
11 -2 3 1 6 -5 6 -12 0 -14 -14 -15 -34 -3 -6 4 -18 4 -27 1 -10 -4 -16 -1
-16 7 0 11 -3 11 -10 -1 -5 -8 -10 -10 -10 -4 0 6 2 13 5 16 4 4 63 3 75 -2z
m-484 -16 c18 -14 18 -14 -6 -3 -31 14 -36 19 -24 19 6 0 19 -7 30 -16z m517
-29 c-3 -9 -8 -14 -10 -11 -3 3 -2 9 2 15 9 16 15 13 8 -4z m71 6 c8 -12 -4
-41 -16 -41 -6 0 -5 7 2 15 7 9 10 19 6 22 -4 4 -11 1 -16 -7 -6 -8 -10 -10
-10 -4 0 22 24 32 34 15z m-856 -80 c-7 -2 -16 -9 -20 -14 -3 -6 -5 1 -5 15 2
21 5 23 20 14 12 -8 13 -12 5 -15z m1017 -51 c3 -6 -1 -7 -9 -4 -18 7 -21 14
-7 14 6 0 13 -4 16 -10z m190 -60 c10 -8 24 -15 31 -15 8 0 14 -3 14 -7 0 -5
0 -12 0 -16 0 -5 -7 -9 -15 -9 -8 0 -12 4 -9 8 2 4 0 10 -6 14 -5 3 -10 1 -10
-4 0 -6 -5 -11 -11 -11 -8 0 -8 4 0 14 8 10 9 16 1 21 -5 3 -10 0 -11 -7 0
-10 -2 -10 -6 0 -2 6 -8 10 -12 8 -4 -3 -8 1 -8 8 0 17 19 15 42 -4z m-1685
-114 c0 -2 -7 -7 -16 -10 -8 -3 -12 -2 -9 4 6 10 25 14 25 6z m-280 -50 c0 -3
-23 -6 -52 -7 -10 0 -17 -3 -15 -7 1 -4 -2 -8 -8 -10 -22 -8 -13 14 13 29 18
11 33 13 45 7 9 -5 17 -10 17 -12z m-90 -48 c0 -5 5 -6 10 -3 6 3 10 1 10 -4
0 -15 -11 -14 -30 4 -16 14 -18 14 -23 0 -4 -8 -1 -15 5 -15 6 0 9 -2 6 -5 -3
-3 -13 -3 -22 1 -16 6 -16 8 0 25 16 17 44 16 44 -3z m2404 0 c-5 -7 -9 -16
-9 -20 0 -3 -3 -9 -7 -13 -8 -8 -4 13 7 38 4 10 10 16 12 13 3 -3 1 -11 -3
-18z m-2544 -38 c8 -5 11 -10 5 -10 -5 0 -17 5 -25 10 -8 5 -10 10 -5 10 6 0
17 -5 25 -10z m2645 -19 c1 -10 -4 -18 -10 -18 -10 0 -13 24 -6 46 3 10 15
-11 16 -28z m-2715 15 c0 -2 -8 -10 -17 -17 -16 -13 -17 -12 -4 4 13 16 21 21
21 13z m170 -4 c0 -5 -7 -9 -15 -9 -8 0 -12 4 -9 9 3 4 9 8 15 8 5 0 9 -4 9
-8z m-63 -17 c0 -8 -4 -12 -9 -9 -5 3 -6 10 -3 15 9 13 12 11 12 -6z m-117
-19 c0 -3 -4 -8 -10 -11 -5 -3 -10 -1 -10 4 0 6 5 11 10 11 6 0 10 -2 10 -4z
m2847 -36 l3 -24 -20 24 c-11 13 -20 17 -20 10 0 -7 -3 -11 -6 -7 -10 10 5 25
23 23 9 -2 18 -13 20 -26z m-3030 -9 c1 -11 -5 -22 -14 -25 -13 -5 -14 -4 -3
9 8 9 9 15 2 15 -6 0 -15 -7 -20 -16 -8 -15 -10 -14 -16 2 -4 10 -4 15 0 12 3
-4 13 -1 21 7 20 20 28 19 30 -4z m143 -1 c0 -5 -2 -10 -4 -10 -3 0 -8 5 -11
10 -3 6 -1 10 4 10 6 0 11 -4 11 -10z m-207 -38 c-4 -10 -8 -12 -11 -4 -2 7
-7 10 -12 7 -7 -4 -7 3 -1 34 1 2 7 -2 15 -9 8 -6 12 -19 9 -28z m3242 -2 c3
-5 1 -10 -4 -10 -6 0 -11 5 -11 10 0 6 2 10 4 10 3 0 8 -4 11 -10z m98 -60 c3
-11 0 -23 -5 -27 -6 -3 -8 -1 -4 5 3 6 -1 18 -10 26 -13 13 -13 16 -1 16 8 0
17 -9 20 -20z m-26 -22 c-3 -8 -6 -5 -6 6 -1 11 2 17 5 13 3 -3 4 -12 1 -19z
m-3311 -18 c0 -12 -4 -16 -9 -11 -5 5 -6 14 -3 20 10 15 12 14 12 -9z m3459
-80 c3 -5 1 -10 -4 -10 -6 0 -11 5 -11 10 0 6 2 10 4 10 3 0 8 -4 11 -10z
m-3495 -22 c0 -6 -6 -5 -15 2 -8 7 -15 14 -15 16 0 2 7 1 15 -2 8 -4 15 -11
15 -16z m3615 -77 c3 -5 2 -12 -3 -15 -5 -3 -9 1 -9 9 0 17 3 19 12 6z m48 -7
c3 -15 49 -59 59 -56 5 1 4 -7 -2 -18 -11 -20 -21 -27 -19 -12 3 20 -2 33 -11
27 -6 -4 -10 -3 -9 2 3 19 -2 33 -12 33 -5 0 -8 -4 -5 -8 6 -11 -31 -9 -41 2
-5 4 -3 7 2 6 6 -1 17 -2 25 -1 13 1 13 2 0 11 -11 7 -11 10 -2 10 8 0 10 5 6
13 -4 6 -4 9 0 5 4 -3 8 -10 9 -14z m131 -145 c-2 -3 4 -15 14 -25 21 -23 22
-46 2 -51 -13 -4 -13 -3 0 6 11 8 12 11 2 11 -7 0 -10 5 -7 10 9 14 -8 12 -25
-2 -8 -7 -7 -4 2 7 15 18 15 22 1 40 -15 20 -15 20 -10 -2 3 -13 0 -26 -5 -30
-6 -3 -8 -2 -5 4 3 5 0 21 -8 36 -7 14 -11 28 -8 31 7 7 52 -27 47 -35z m-59
3 c-3 -3 -11 0 -18 7 -9 10 -8 11 6 5 10 -3 15 -9 12 -12z m-4018 -9 c-4 -3
-1 -13 6 -21 10 -13 9 -14 -2 -7 -11 6 -13 4 -8 -7 4 -11 1 -15 -11 -13 -9 2
-19 4 -22 4 -3 1 2 6 10 11 8 5 16 14 16 20 2 17 4 20 11 20 3 0 3 -3 0 -7z
m-27 -106 c0 -4 -6 -2 -14 5 -8 7 -12 17 -9 22 5 8 23 -12 23 -27z m4159 -21
c9 -11 9 -16 -1 -22 -7 -4 -10 -4 -6 1 4 4 3 14 -3 22 -6 7 -9 13 -6 13 2 0
10 -6 16 -14z m61 -101 c19 -22 8 -25 -12 -3 -10 10 -14 18 -9 18 5 0 14 -7
21 -15z m30 -57 c0 -4 -4 -8 -9 -8 -6 0 -12 4 -15 8 -3 5 1 9 9 9 8 0 15 -4
15 -9z m96 -111 c1 -7 -8 -14 -20 -15 -11 0 -16 2 -10 6 6 4 10 15 8 26 -2 14
0 16 9 7 6 -6 12 -17 13 -24z m-36 13 c0 -5 -5 -10 -11 -10 -5 0 -7 5 -4 10 3
6 8 10 11 10 2 0 4 -4 4 -10z m-4463 -104 c0 -8 -8 -11 -21 -8 -19 5 -19 6 0
13 10 4 19 8 20 8 0 1 1 -5 1 -13z m4519 2 c4 -7 4 -10 -1 -6 -4 4 -15 2 -24
-5 -14 -11 -14 -10 -2 6 16 20 18 21 27 5z m62 -59 c16 -19 19 -29 10 -29 -17
1 -56 30 -39 30 7 0 3 9 -10 21 -13 11 -18 17 -10 13 11 -5 13 -3 8 12 -6 18
-6 18 6 0 7 -10 23 -32 35 -47z m-4593 23 c-3 -3 -11 0 -18 7 -9 10 -8 11 6 5
10 -3 15 -9 12 -12z m-24 -39 c13 -16 12 -17 -3 -4 -10 7 -18 15 -18 17 0 8 8
3 21 -13z m4673 -125 c4 4 6 0 4 -8 -2 -9 4 -14 14 -14 10 1 14 -4 11 -12 -6
-16 -23 -19 -23 -3 0 5 -6 7 -12 3 -7 -4 -10 -3 -5 1 4 5 -1 18 -10 29 -14 15
-14 18 -2 8 9 -6 19 -8 23 -4z m-4739 -258 c3 -5 1 -10 -4 -10 -6 0 -11 5 -11
10 0 6 2 10 4 10 3 0 8 -4 11 -10z m-68 -112 c-3 -8 -6 -5 -6 6 -1 11 2 17 5
13 3 -3 4 -12 1 -19z m4898 -106 c-3 -3 -16 -7 -28 -9 -17 -2 -19 -1 -7 7 13
9 13 10 0 10 -13 0 -13 1 0 10 14 9 46 -7 35 -18z m5 -67 c-7 -8 -17 -15 -23
-15 -6 0 -2 7 9 15 25 19 30 19 14 0z m7 -29 c0 -8 -6 -12 -15 -9 -11 5 -11 7
0 14 7 5 13 9 14 9 0 0 1 -6 1 -14z m-4937 -4 c0 -5 -7 -9 -15 -9 -8 0 -12 4
-9 9 3 4 9 8 15 8 5 0 9 -4 9 -8z m3860 -22 c0 -5 -5 -10 -11 -10 -5 0 -7 5
-4 10 3 6 8 10 11 10 2 0 4 -4 4 -10z m1064 1 c3 -5 -1 -11 -9 -14 -9 -4 -12
-1 -8 9 6 16 10 17 17 5z m-1052 -36 c-8 -16 -9 -16 -15 -1 -4 10 -3 15 3 11
6 -3 10 -1 10 6 0 7 3 10 6 6 3 -3 2 -13 -4 -22z m-3858 -3 c3 -5 -1 -9 -9 -9
-8 0 -12 4 -9 9 3 4 7 8 9 8 2 0 6 -4 9 -8z m3715 -18 c-6 -8 -15 -12 -18 -8
-3 4 0 9 7 11 6 3 9 10 6 15 -4 7 -2 8 5 4 9 -6 9 -11 0 -22z m1222 -7 c-6 -8
-9 -23 -6 -35 2 -12 -1 -25 -7 -28 -7 -4 -8 -2 -4 4 4 7 0 12 -11 13 -16 0
-16 1 1 8 22 9 10 20 -17 16 -9 -2 -15 1 -11 6 3 5 9 7 13 4 5 -2 17 2 27 10
24 18 30 19 15 2z m-1027 -43 c9 -24 2 -26 -12 -4 -7 11 -8 20 -3 20 5 0 12
-7 15 -16z m-240 -52 c3 -5 -1 -9 -9 -9 -8 0 -12 4 -9 9 3 4 7 8 9 8 2 0 6 -4
9 -8z m-3654 -22 c0 -5 -8 -10 -17 -10 -15 0 -16 2 -3 10 19 12 20 12 20 0z
m3671 -23 c-13 -13 -26 -3 -16 12 3 6 11 8 17 5 6 -4 6 -10 -1 -17z m1188 -93
c-5 -6 -6 -14 -3 -17 4 -3 -6 -4 -22 -1 -33 6 -48 17 -19 14 34 -4 38 -1 18
18 -10 9 -14 14 -9 10 17 -13 26 -9 19 10 -5 14 -3 13 10 -3 10 -12 12 -24 6
-31z m-4854 5 c-4 -5 0 -9 7 -10 10 0 11 -2 0 -6 -10 -4 -10 -8 -1 -19 6 -8
16 -11 22 -7 6 3 7 1 3 -6 -6 -9 -11 -9 -22 0 -8 6 -14 8 -14 5 0 -4 -5 -4
-10 -1 -8 5 -8 11 0 20 8 9 8 15 0 20 -6 3 -8 11 -4 16 3 5 10 7 15 3 5 -3 7
-10 4 -15z m4082 -68 c-1 -3 4 -15 10 -26 6 -11 12 -24 13 -30 1 -5 7 -9 13
-7 6 2 6 -3 -2 -11 -9 -12 -9 -16 1 -19 8 -3 6 -7 -6 -11 -9 -4 -15 -3 -12 2
3 5 -1 14 -9 21 -10 8 -12 17 -6 24 6 7 6 17 1 26 -6 8 -10 11 -10 6 0 -5 -7
-3 -15 4 -8 7 -13 16 -10 19 5 9 35 10 32 2z m718 -43 c-1 -13 -5 -22 -8 -20
-4 1 -11 2 -17 2 -5 0 -2 9 7 20 21 24 20 25 18 -2z m-4611 4 c3 -5 -1 -9 -9
-9 -8 0 -12 4 -9 9 3 4 7 8 9 8 2 0 6 -4 9 -8z m22 -37 c-5 -13 5 -20 27 -16
11 2 9 -17 -3 -24 -5 -3 -10 -1 -10 4 0 6 -5 11 -11 11 -5 0 -7 -5 -3 -12 4
-6 3 -8 -4 -5 -5 4 -9 15 -7 25 2 9 4 20 4 25 1 4 4 7 7 7 3 0 4 -7 0 -15z
m-66 -5 c0 -5 -4 -10 -10 -10 -5 0 -10 5 -10 10 0 6 5 10 10 10 6 0 10 -4 10
-10z m4637 2 c8 -5 3 -11 -13 -19 -14 -7 -26 -7 -30 -2 -3 5 0 8 8 7 7 -2 12
3 11 10 -3 14 6 15 24 4z m-4462 -42 c3 -5 1 -10 -4 -10 -6 0 -11 5 -11 10 0
6 2 10 4 10 3 0 8 -4 11 -10z m36 -7 c13 -16 12 -17 -3 -4 -10 7 -18 15 -18
17 0 8 8 3 21 -13z m4389 -4 c0 -5 -4 -9 -8 -9 -5 0 -9 7 -9 15 0 8 4 12 9 9
4 -3 8 -9 8 -15z m-4300 -23 c0 -2 -7 -7 -16 -10 -8 -3 -12 -2 -9 4 6 10 25
14 25 6z m4140 -10 c-7 -7 -13 -7 -20 0 -6 6 -3 10 10 10 13 0 16 -4 10 -10z
m185 -5 c3 -5 2 -12 -3 -15 -5 -3 -9 1 -9 9 0 17 3 19 12 6z m-575 -21 c-8 -5
-19 -10 -25 -10 -5 0 -3 5 5 10 8 5 20 10 25 10 6 0 3 -5 -5 -10z m-3693 -15
c0 -8 -4 -12 -9 -9 -4 3 -8 9 -8 15 0 5 4 9 8 9 5 0 9 -7 9 -15z m4007 7 c3
-5 -1 -9 -9 -9 -8 0 -12 4 -9 9 3 4 7 8 9 8 2 0 6 -4 9 -8z m52 -4 c4 4 3 0
-4 -9 -6 -9 -8 -20 -4 -24 4 -5 1 -5 -6 -1 -7 4 -10 12 -7 17 4 5 1 9 -4 9 -6
0 -11 5 -11 11 0 8 4 9 13 0 8 -6 18 -7 23 -3z m-338 -38 c-2 -7 -10 1 -17 16
-12 27 -11 28 4 12 10 -9 16 -21 13 -28z m97 -20 c3 -5 1 -10 -4 -10 -6 0 -11
5 -11 10 0 6 2 10 4 10 3 0 8 -4 11 -10z m145 0 c0 -5 -4 -10 -10 -10 -5 0
-10 5 -10 10 0 6 5 10 10 10 6 0 10 -4 10 -10z m-3956 -26 c3 -8 2 -12 -4 -9
-6 3 -10 10 -10 16 0 14 7 11 14 -7z m3836 -5 c0 -15 -18 -19 -23 -6 -3 8 1
14 9 14 8 0 14 -4 14 -8z m-3810 -25 c0 -8 -19 -13 -24 -6 -3 5 1 9 9 9 8 0
15 -2 15 -3z m3007 -14 c1 -11 -2 -20 -7 -20 -6 0 -7 17 -1 38 3 8 7 -1 8 -18z
m-112 -198 c-3 -3 -11 0 -18 7 -9 10 -8 11 6 5 10 -3 15 -9 12 -12z m-2818
-204 c-3 -8 -6 -5 -6 6 -1 11 2 17 5 13 3 -3 4 -12 1 -19z m2653 -8 c0 -5 -2
-10 -4 -10 -3 0 -8 5 -11 10 -3 6 -1 10 4 10 6 0 11 -4 11 -10z m-38 -64 c7 4
8 2 4 -5 -9 -13 -26 -5 -25 12 0 9 2 8 6 -1 2 -6 10 -9 15 -6z m-2531 -43 c13
-16 12 -17 -3 -4 -10 7 -18 15 -18 17 0 8 8 3 21 -13z m1 -32 c8 12 9 12 6 0
-2 -8 -11 -15 -20 -17 -12 -1 -15 3 -10 14 4 12 7 13 10 3 4 -11 6 -11 14 0z
m78 -81 c-12 -23 -16 -24 -26 -8 -4 6 -3 8 3 5 6 -4 13 0 17 8 3 8 8 15 11 15
3 0 1 -9 -5 -20z m30 0 c0 -5 -5 -10 -11 -10 -5 0 -7 5 -4 10 3 6 8 10 11 10
2 0 4 -4 4 -10z m2120 -81 c0 -5 4 -8 9 -5 5 4 8 -1 7 -9 -4 -25 -11 -25 -23
1 -6 13 -7 24 -2 24 5 0 9 -5 9 -11z m-1900 -78 c0 -6 -4 -12 -8 -15 -5 -3 -9
1 -9 9 0 8 4 15 9 15 4 0 8 -4 8 -9z m1774 -23 c-1 -13 -3 -25 -3 -27 -2 -8
-31 22 -31 33 0 7 4 6 9 -2 7 -11 9 -11 14 2 9 23 14 20 11 -6z m-1754 -4 c0
-8 -5 -12 -10 -9 -6 4 -8 11 -5 16 9 14 15 11 15 -7z m27 2 c-3 -7 0 -20 6
-27 10 -11 9 -11 -5 0 -15 11 -15 41 -1 41 3 0 3 -6 0 -14z m1633 -86 c8 -5
11 -10 5 -10 -5 0 -17 5 -25 10 -8 5 -10 10 -5 10 6 0 17 -5 25 -10z m-45 -10
c-3 -5 -12 -10 -18 -10 -7 0 -6 4 3 10 19 12 23 12 15 0z m-1100 -80 c3 -5 1
-10 -4 -10 -6 0 -11 5 -11 10 0 6 2 10 4 10 3 0 8 -4 11 -10z m1034 1 c9 -6
10 -11 2 -15 -6 -4 -11 -2 -11 3 0 6 -5 11 -11 11 -5 0 -8 -4 -5 -9 3 -5 -1
-14 -9 -21 -8 -7 -15 -9 -15 -4 0 4 -6 0 -12 -9 -12 -16 -13 -15 -13 6 0 13 6
24 13 24 6 0 12 -5 12 -10 0 -12 14 0 16 14 3 17 4 19 12 19 4 0 13 -4 21 -9z
m-994 -11 c3 -6 -1 -7 -9 -4 -18 7 -21 14 -7 14 6 0 13 -4 16 -10z m60 -29
c-3 -6 -10 -9 -15 -6 -5 3 -11 1 -15 -5 -7 -12 -25 -4 -25 11 0 5 11 7 25 5
14 -3 25 0 25 6 0 6 3 9 6 5 3 -3 3 -11 -1 -16z m402 -36 c0 -8 -3 -13 -5 -10
-3 3 -12 -1 -21 -7 -10 -8 -9 -4 3 10 23 26 23 26 23 7z m-122 -5 c-6 -10 7
-14 33 -11 6 1 12 -2 12 -7 0 -12 -32 -12 -47 0 -12 9 -9 28 3 28 3 0 2 -4 -1
-10z m222 -12 c-3 -8 -6 -5 -6 6 -1 11 2 17 5 13 3 -3 4 -12 1 -19z m89 10
c-10 -6 -22 -6 -26 -2 -5 5 3 10 18 11 22 1 24 0 8 -9z"/>
<path d="M2736 4638 c3 -4 9 -8 15 -8 5 0 9 4 9 8 0 5 -7 9 -15 9 -8 0 -12 -4
-9 -9z"/>
<path d="M2335 4630 c-3 -6 1 -7 9 -4 18 7 21 14 7 14 -6 0 -13 -4 -16 -10z"/>
<path d="M2703 4634 c4 -4 1 -14 -6 -23 -10 -14 -10 -14 4 -4 9 7 19 10 22 6
4 -3 7 -2 7 4 0 6 -8 14 -17 17 -10 4 -14 4 -10 0z"/>
<path d="M2925 4619 c-4 -6 -4 -13 -1 -16 3 -4 6 -1 6 6 0 7 5 9 12 5 7 -4 8
-3 4 4 -9 15 -13 15 -21 1z"/>
<path d="M2141 4548 c-9 -14 -9 -23 -2 -29 6 -5 9 -6 6 -3 -2 4 0 15 6 26 14
27 6 32 -10 6z"/>
<path d="M2115 4549 c-4 -6 -5 -12 -2 -15 2 -3 7 2 10 11 7 17 1 20 -8 4z"/>
<path d="M3029 4533 c-13 -17 -13 -17 6 -3 11 8 22 16 24 17 2 2 0 3 -6 3 -6
0 -17 -8 -24 -17z"/>
<path d="M2027 4489 c7 -7 15 -10 18 -7 3 3 -2 9 -12 12 -14 6 -15 5 -6 -5z"/>
<path d="M3190 4470 c0 -6 -4 -9 -9 -5 -5 3 -13 0 -17 -7 -4 -7 -4 -10 1 -6 4
4 20 -1 34 -11 18 -12 32 -16 46 -10 17 7 18 8 3 10 -10 1 -22 3 -28 4 -5 1
-16 3 -22 4 -10 1 -10 3 1 10 9 6 10 11 2 15 -6 4 -11 2 -11 -4z"/>
<path d="M3236 4458 c3 -5 10 -6 15 -3 13 9 11 12 -6 12 -8 0 -12 -4 -9 -9z"/>
<path d="M1835 4410 c-3 -6 1 -7 9 -4 18 7 21 14 7 14 -6 0 -13 -4 -16 -10z"/>
<path d="M1795 4380 c1 -3 -3 -10 -10 -17 -10 -9 -14 -10 -17 -1 -3 8 -7 6
-10 -4 -8 -20 13 -18 38 2 9 8 20 14 23 12 3 -2 7 1 9 7 2 5 -6 9 -17 8 -11 0
-18 -4 -16 -7z"/>
<path d="M1669 4343 c-13 -16 -12 -17 4 -4 9 7 17 15 17 17 0 8 -8 3 -21 -13z"/>
<path d="M1576 4292 c-2 -4 -1 -14 3 -21 6 -9 11 -10 15 -2 4 6 2 11 -4 11 -6
0 -8 5 -5 10 3 6 4 10 1 10 -3 0 -7 -4 -10 -8z"/>
<path d="M3539 4284 c5 -11 7 -31 4 -44 -5 -18 -3 -21 8 -14 20 12 39 14 39 3
0 -6 5 -7 10 -4 14 9 12 25 -2 23 -7 -2 -12 3 -10 11 3 12 1 12 -14 0 -16 -13
-17 -12 -10 6 4 11 4 16 0 12 -4 -4 -13 1 -21 11 -13 15 -13 15 -4 -4z"/>
<path d="M3630 4246 c0 -2 7 -7 16 -10 8 -3 12 -2 9 4 -6 10 -25 14 -25 6z"/>
<path d="M1079 4208 c15 -21 2 -24 -19 -5 -7 6 -6 1 3 -12 11 -17 28 -26 49
-27 22 -2 28 0 18 6 -8 5 -17 7 -21 4 -4 -2 -10 0 -14 6 -3 5 -1 10 4 10 6 0
11 5 11 12 0 6 -3 8 -7 5 -3 -4 -13 -1 -22 6 -14 11 -14 10 -2 -5z"/>
<path d="M1170 4185 c0 -7 30 -13 34 -7 3 4 -4 9 -15 9 -10 1 -19 0 -19 -2z"/>
<path d="M3734 4183 c4 -7 2 -13 -4 -13 -6 0 -8 -4 -5 -10 3 -5 10 -10 15 -10
10 0 7 27 -5 37 -4 4 -5 2 -1 -4z"/>
<path d="M995 4160 c-3 -5 -3 -10 2 -10 4 0 1 -5 -7 -10 -12 -8 -12 -10 5 -10
17 0 17 -2 5 -10 -8 -5 -10 -10 -4 -10 18 0 24 12 13 31 -6 13 -6 19 1 19 5 0
10 -5 10 -11 0 -5 5 -7 11 -3 8 4 7 9 -2 15 -18 11 -26 11 -34 -1z"/>
<path d="M3808 4122 c-4 -12 -2 -20 3 -16 5 3 9 0 9 -7 0 -7 2 -10 5 -7 3 3 2
16 -3 28 l-9 24 -5 -22z"/>
<path d="M990 4089 c0 -5 5 -7 10 -4 6 3 10 8 10 11 0 2 -4 4 -10 4 -5 0 -10
-5 -10 -11z"/>
<path d="M750 4059 c0 -5 5 -7 10 -4 6 3 10 8 10 11 0 2 -4 4 -10 4 -5 0 -10
-5 -10 -11z"/>
<path d="M4070 3981 c0 -5 5 -13 10 -16 6 -3 10 -2 10 4 0 5 -4 13 -10 16 -5
3 -10 2 -10 -4z"/>
<path d="M4156 3967 c3 -10 9 -15 12 -12 3 3 0 11 -7 18 -10 9 -11 8 -5 -6z"/>
<path d="M723 3938 c-11 -19 -13 -39 -1 -32 5 3 7 9 4 12 -3 3 -1 11 5 19 6 7
9 13 6 13 -3 0 -9 -6 -14 -12z"/>
<path d="M756 3934 c-20 -20 -20 -23 1 -20 9 2 17 10 19 19 3 21 0 21 -20 1z"/>
<path d="M4183 3942 c-16 -10 -10 -47 8 -47 16 0 25 33 12 46 -4 4 -14 5 -20
1z m9 -34 c-7 -7 -10 -5 -7 8 5 29 6 30 12 16 3 -8 1 -18 -5 -24z"/>
<path d="M4293 3885 c0 -8 4 -12 9 -9 5 3 6 10 3 15 -9 13 -12 11 -12 -6z"/>
<path d="M619 3768 c-5 -18 -6 -38 -1 -34 7 8 12 36 6 36 -2 0 -4 -1 -5 -2z"/>
<path d="M4550 3620 c0 -5 5 -10 11 -10 5 0 7 5 4 10 -3 6 -8 10 -11 10 -2 0
-4 -4 -4 -10z"/>
<path d="M4621 3464 c6 -7 16 -11 21 -8 11 7 3 17 -18 20 -12 2 -13 -1 -3 -12z"/>
<path d="M4664 3419 c1 -7 12 -16 25 -20 14 -6 20 -5 16 1 -3 6 -12 10 -20 10
-7 0 -16 5 -18 10 -3 6 -4 5 -3 -1z"/>
<path d="M373 3404 c0 -16 13 -19 21 -5 3 5 0 11 -7 14 -8 3 -14 -1 -14 -9z"/>
<path d="M4715 3340 c-3 -5 -1 -10 4 -10 6 0 11 5 11 10 0 6 -2 10 -4 10 -3 0
-8 -4 -11 -10z"/>
<path d="M4850 3130 c-12 -7 -12 -11 -2 -20 6 -5 10 -7 7 -4 -3 4 0 13 6 21
13 15 10 16 -11 3z"/>
<path d="M4933 2995 c0 -8 4 -12 9 -9 5 3 6 10 3 15 -9 13 -12 11 -12 -6z"/>
<path d="M4909 2968 c-9 -30 -6 -37 12 -28 10 6 19 16 18 23 0 9 -2 9 -6 0 -2
-7 -9 -13 -14 -13 -6 0 -7 5 -4 10 3 6 4 10 1 10 -3 0 -6 -1 -7 -2z"/>
<path d="M220 2940 c-9 -6 -10 -10 -3 -10 6 0 15 5 18 10 8 12 4 12 -15 0z"/>
<path d="M187 2919 c7 -9 10 -19 6 -22 -3 -4 -1 -7 5 -7 17 0 15 16 -5 31 -16
12 -17 12 -6 -2z"/>
<path d="M155 2659 c-4 -6 -5 -13 -2 -16 7 -7 27 6 27 18 0 12 -17 12 -25 -2z"/>
<path d="M4980 2566 c16 -16 22 -18 32 -8 11 11 9 12 -6 6 -15 -6 -18 -4 -14
7 4 10 -1 15 -13 15 -18 0 -18 -1 1 -20z"/>
<path d="M5026 2478 c3 -5 10 -6 15 -3 13 9 11 12 -6 12 -8 0 -12 -4 -9 -9z"/>
<path d="M30 2438 c0 -4 7 -8 15 -8 8 0 15 4 15 8 0 5 -7 9 -15 9 -8 0 -15 -4
-15 -9z"/>
<path d="M54 2341 c19 -21 10 -31 -10 -11 -7 7 -11 6 -11 -3 0 -17 39 -17 44
0 2 6 -6 17 -19 24 -23 12 -23 12 -4 -10z"/>
<path d="M3858 2296 c-15 -11 -15 -14 3 -36 11 -14 17 -18 14 -10 -3 9 5 19
20 27 24 11 25 10 20 -10 -5 -19 -5 -20 5 -4 14 21 3 44 -13 28 -13 -13 -30
-15 -22 -2 9 16 -9 20 -27 7z m15 -11 c-3 -9 -8 -14 -10 -11 -3 3 -2 9 2 15 9
16 15 13 8 -4z"/>
<path d="M5073 2285 c0 -8 4 -12 9 -9 5 3 6 10 3 15 -9 13 -12 11 -12 -6z"/>
<path d="M3926 2243 c-6 -14 -5 -15 5 -6 7 7 10 15 7 18 -3 3 -9 -2 -12 -12z"/>
<path d="M3870 2220 c0 -5 5 -10 11 -10 5 0 7 5 4 10 -3 6 -8 10 -11 10 -2 0
-4 -4 -4 -10z"/>
<path d="M3950 2206 c0 -2 7 -6 15 -10 8 -3 15 -1 15 4 0 6 -7 10 -15 10 -8 0
-15 -2 -15 -4z"/>
<path d="M3975 2169 c-4 -6 -5 -12 -2 -15 2 -3 7 2 10 11 7 17 1 20 -8 4z"/>
<path d="M3875 2160 c3 -5 8 -10 11 -10 2 0 4 5 4 10 0 6 -5 10 -11 10 -5 0
-7 -4 -4 -10z"/>
<path d="M4035 2089 c-4 -6 -5 -12 -2 -15 2 -3 7 2 10 11 7 17 1 20 -8 4z"/>
<path d="M3785 1993 c-11 -26 -13 -53 -3 -53 4 0 8 7 8 16 0 9 5 12 12 8 6 -4
8 -3 4 4 -3 6 -2 13 4 17 11 7 4 25 -10 25 -4 0 -11 -8 -15 -17z m25 3 c0 -2
-8 -10 -17 -17 -16 -13 -17 -12 -4 4 13 16 21 21 21 13z"/>
<path d="M99 1913 c-13 -16 -12 -17 4 -4 16 13 21 21 13 21 -2 0 -10 -8 -17
-17z"/>
<path d="M4176 1887 c3 -10 9 -15 12 -12 3 3 0 11 -7 18 -10 9 -11 8 -5 -6z"/>
<path d="M3790 1860 c0 -5 5 -10 11 -10 5 0 7 5 4 10 -3 6 -8 10 -11 10 -2 0
-4 -4 -4 -10z"/>
<path d="M116 1822 c-3 -5 1 -9 9 -9 8 0 12 4 9 9 -3 4 -7 8 -9 8 -2 0 -6 -4
-9 -8z"/>
<path d="M4955 1816 c-11 -7 -24 -14 -29 -15 -6 0 -11 -8 -12 -16 -2 -12 1
-13 10 -6 7 6 16 7 20 3 4 -4 6 -2 4 5 -1 6 6 19 17 27 25 19 17 21 -10 2z"/>
<path d="M194 1774 c3 -9 6 -18 6 -20 0 -2 5 -4 11 -4 8 0 9 4 0 13 -6 8 -8
17 -4 20 3 4 1 7 -6 7 -8 0 -11 -6 -7 -16z"/>
<path d="M167 1767 c-3 -8 1 -14 8 -14 7 0 11 6 8 14 -3 7 -6 13 -8 13 -2 0
-5 -6 -8 -13z"/>
<path d="M4788 1774 c-3 -5 3 -17 14 -26 21 -21 24 -10 5 17 -8 10 -16 14 -19
9z"/>
<path d="M340 1766 c0 -2 8 -10 18 -17 15 -13 16 -12 3 4 -13 16 -21 21 -21
13z"/>
<path d="M434 1758 c-3 -5 0 -7 8 -6 7 2 12 -3 11 -9 -2 -7 2 -13 7 -13 6 0
10 5 10 11 0 8 4 8 14 0 12 -10 14 -9 12 5 -3 19 -52 28 -62 12z"/>
<path d="M4236 1758 c3 -5 10 -6 15 -3 13 9 11 12 -6 12 -8 0 -12 -4 -9 -9z"/>
<path d="M4830 1758 c0 -4 4 -8 9 -8 6 0 12 4 15 8 3 5 -1 9 -9 9 -8 0 -15 -4
-15 -9z"/>
<path d="M230 1741 c0 -6 4 -13 10 -16 6 -3 7 1 4 9 -7 18 -14 21 -14 7z"/>
<path d="M406 1742 c-3 -5 1 -9 9 -9 8 0 12 4 9 9 -3 4 -7 8 -9 8 -2 0 -6 -4
-9 -8z"/>
<path d="M3775 1740 c-3 -5 -1 -10 4 -10 6 0 11 5 11 10 0 6 -2 10 -4 10 -3 0
-8 -4 -11 -10z"/>
<path d="M566 1724 c-11 -8 -15 -14 -9 -14 7 0 15 5 18 10 4 6 11 7 17 4 6 -4
5 -10 -3 -15 -10 -6 -10 -9 -2 -9 18 0 24 16 10 28 -8 7 -18 6 -31 -4z"/>
<path d="M176 1718 c3 -5 10 -6 15 -3 13 9 11 12 -6 12 -8 0 -12 -4 -9 -9z"/>
<path d="M600 1676 c7 -7 13 -7 20 0 6 6 3 10 -10 10 -13 0 -16 -4 -10 -10z"/>
<path d="M4374 1648 c-4 -6 -3 -8 4 -4 5 3 12 1 14 -6 3 -8 6 -9 11 -1 4 6 0
13 -8 17 -8 3 -17 0 -21 -6z"/>
<path d="M588 1638 c5 -5 16 -8 23 -6 8 3 3 7 -10 11 -17 4 -21 3 -13 -5z"/>
<path d="M4576 1626 c3 -8 14 -14 24 -13 17 1 18 12 2 12 -4 0 -13 4 -19 8 -9
6 -11 3 -7 -7z"/>
<path d="M4370 1621 c0 -6 4 -13 10 -16 6 -3 7 1 4 9 -7 18 -14 21 -14 7z"/>
<path d="M595 1590 c-3 -6 1 -7 9 -4 18 7 21 14 7 14 -6 0 -13 -4 -16 -10z"/>
<path d="M4456 1587 c3 -10 9 -15 12 -12 3 3 0 11 -7 18 -10 9 -11 8 -5 -6z"/>
<path d="M3721 1576 c-8 -10 -9 -16 -1 -21 6 -4 9 -1 8 7 -2 7 3 12 10 11 6
-2 12 2 12 7 0 14 -16 12 -29 -4z"/>
<path d="M595 1500 c3 -5 8 -10 11 -10 2 0 4 5 4 10 0 6 -5 10 -11 10 -5 0 -7
-4 -4 -10z"/>
<path d="M621 1453 c16 -26 36 -30 36 -8 0 8 -4 12 -9 9 -5 -3 -16 0 -25 8
-15 12 -15 11 -2 -9z"/>
<path d="M3637 1434 c-4 -4 -7 -11 -7 -15 0 -9 27 -5 37 6 4 4 3 5 -4 2 -6 -4
-13 -2 -15 4 -2 5 -7 7 -11 3z"/>
<path d="M617 1405 c-4 -8 -3 -16 1 -19 4 -3 9 4 9 15 2 23 -3 25 -10 4z"/>
<path d="M645 1409 c-4 -6 -5 -12 -2 -15 2 -3 7 2 10 11 7 17 1 20 -8 4z"/>
<path d="M654 1320 c0 -9 9 -16 21 -17 11 -1 14 1 6 4 -10 4 -10 7 -1 13 8 5
6 9 -7 12 -13 3 -19 0 -19 -12z"/>
<path d="M710 1205 c0 -8 4 -15 8 -15 5 0 9 7 9 15 0 8 -4 15 -9 15 -4 0 -8
-7 -8 -15z"/>
<path d="M3444 1208 c-12 -19 -14 -38 -4 -38 10 0 24 39 17 46 -3 3 -9 -1 -13
-8z"/>
<path d="M3430 1139 c0 -5 5 -7 10 -4 6 3 10 8 10 11 0 2 -4 4 -10 4 -5 0 -10
-5 -10 -11z"/>
<path d="M736 1078 c3 -5 10 -6 15 -3 13 9 11 12 -6 12 -8 0 -12 -4 -9 -9z"/>
<path d="M3306 1052 c-2 -4 -1 -14 5 -22 7 -12 9 -10 9 8 0 23 -5 28 -14 14z"/>
<path d="M827 987 c-3 -8 1 -14 8 -14 7 0 11 6 8 14 -3 7 -6 13 -8 13 -2 0 -5
-6 -8 -13z"/>
<path d="M3270 982 c0 -4 9 -8 19 -8 11 0 17 4 15 8 -3 4 -12 8 -20 8 -8 0
-14 -4 -14 -8z"/>
<path d="M916 913 c-6 -14 -5 -15 5 -6 7 7 10 15 7 18 -3 3 -9 -2 -12 -12z"/>
<path d="M3175 900 c-3 -6 1 -7 9 -4 18 7 21 14 7 14 -6 0 -13 -4 -16 -10z"/>
<path d="M936 888 c4 -5 12 -7 19 -4 7 2 18 -1 24 -7 8 -8 11 -8 11 1 0 7 -3
12 -7 13 -5 0 -18 2 -30 3 -12 1 -20 -1 -17 -6z"/>
<path d="M950 866 c0 -2 7 -7 16 -10 8 -3 12 -2 9 4 -6 10 -25 14 -25 6z"/>
<path d="M1035 810 c-3 -6 1 -7 9 -4 18 7 21 14 7 14 -6 0 -13 -4 -16 -10z"/>
<path d="M1075 810 c-8 -13 3 -30 18 -29 9 0 9 2 0 6 -7 2 -13 9 -13 14 0 6 5
7 12 3 7 -4 8 -3 4 4 -9 15 -13 15 -21 2z"/>
<path d="M2995 810 c-3 -5 -1 -10 4 -10 6 0 11 5 11 10 0 6 -2 10 -4 10 -3 0
-8 -4 -11 -10z"/>
<path d="M2997 775 c-4 -8 -3 -16 1 -19 4 -3 9 4 9 15 2 23 -3 25 -10 4z"/>
<path d="M1110 770 c0 -6 7 -10 15 -10 8 0 15 2 15 4 0 2 -7 6 -15 10 -8 3
-15 1 -15 -4z"/>
<path d="M2955 739 c-4 -6 -5 -12 -2 -15 2 -3 7 2 10 11 7 17 1 20 -8 4z"/>
<path d="M2819 662 c-1 -4 0 -15 1 -26 1 -12 -2 -16 -11 -11 -8 5 -10 4 -5 -4
9 -14 26 -5 26 14 0 7 5 15 12 17 7 3 6 7 -5 11 -9 3 -18 3 -18 -1z"/>
<path d="M1571 604 c0 -11 3 -14 6 -6 3 7 2 16 -1 19 -3 4 -6 -2 -5 -13z"/>
<path d="M1706 553 c-6 -14 -5 -15 5 -6 7 7 10 15 7 18 -3 3 -9 -2 -12 -12z"/>
<path d="M1819 534 c-6 -8 -9 -17 -5 -21 3 -3 6 -1 6 5 0 18 28 14 39 -5 8
-14 10 -15 11 -3 0 8 -9 21 -19 27 -16 10 -22 9 -32 -3z"/>
<path d="M2574 519 c0 -10 4 -19 8 -19 4 0 8 6 8 14 0 8 -4 17 -8 20 -4 2 -8
-4 -8 -15z"/>
<path d="M2650 501 c0 -6 4 -13 10 -16 6 -3 7 1 4 9 -7 18 -14 21 -14 7z"/>
<path d="M1984 478 c-10 -13 -12 -17 -4 -11 8 6 18 12 23 12 8 1 11 11 4 17
-2 2 -12 -6 -23 -18z"/>
<path d="M2216 492 c-4 -7 -12 -9 -18 -6 -7 4 -8 2 -4 -5 4 -6 11 -9 16 -6 5
3 15 -2 24 -10 13 -14 15 -13 13 4 0 11 -4 18 -8 15 -4 -2 -9 1 -11 8 -3 9 -6
9 -12 0z"/>
<path d="M2261 483 c-1 -6 4 -15 9 -18 8 -5 7 -12 -2 -23 -10 -12 -10 -14 -1
-8 22 12 34 44 21 52 -7 4 -8 3 -4 -4 4 -7 3 -12 -3 -12 -5 0 -12 6 -14 13 -4
9 -6 9 -6 0z"/>
<path d="M2316 474 c-4 -9 -4 -19 -1 -22 2 -3 7 3 11 12 4 9 4 19 1 22 -2 3
-7 -3 -11 -12z"/>
<path d="M2344 468 c0 -10 1 -18 3 -18 1 0 7 8 12 18 7 13 6 19 -2 19 -7 0
-13 -9 -13 -19z"/>
<path d="M2560 480 c-9 -6 -10 -10 -3 -10 6 0 15 5 18 10 8 12 4 12 -15 0z"/>
</g>
</svg>
